<svg xmlns="http://www.w3.org/2000/svg" xmlns:xlink="http://www.w3.org/1999/xlink" width="500" zoomAndPan="magnify" viewBox="0 0 375 374.999991" height="500" preserveAspectRatio="xMidYMid meet" version="1.0"><defs><g/><clipPath id="6379964f30"><rect x="0" width="310" y="0" height="108"/></clipPath><clipPath id="7ccd1580b5"><rect x="0" width="183" y="0" height="116"/></clipPath></defs><rect x="-37.5" width="450" fill="#ffffff" y="-37.499999" height="449.999989" fill-opacity="1"/><rect x="-37.5" width="450" fill="#f5f2f5" y="-37.499999" height="449.999989" fill-opacity="1"/><g transform="matrix(1, 0, 0, 1, 35, 176)"><g clip-path="url(#6379964f30)"><g fill="#265f28" fill-opacity="1"><g transform="translate(5.273986, 85.405628)"><g><path d="M 32.792969 -34.140625 L 32.792969 -46.292969 L 74.027344 -46.292969 L 74.027344 -33.207031 C 74.027344 -27.699219 73.125 -22.664062 71.316406 -18.109375 C 69.5 -13.515625 66.910156 -9.542969 63.550781 -6.183594 C 60.1875 -2.820312 56.199219 -0.234375 51.585938 1.570312 C 47.015625 3.355469 41.980469 4.246094 36.480469 4.246094 C 32.253906 4.246094 28.214844 3.601562 24.367188 2.304688 C 20.53125 1.015625 17.011719 -0.816406 13.808594 -3.195312 C 10.621094 -5.558594 7.851562 -8.335938 5.503906 -11.527344 C 3.144531 -14.730469 1.320312 -18.253906 0.03125 -22.101562 C -1.261719 -25.964844 -1.910156 -30.007812 -1.910156 -34.234375 C -1.910156 -38.492188 -1.261719 -42.546875 0.03125 -46.394531 C 1.320312 -50.222656 3.140625 -53.742188 5.496094 -56.960938 C 7.847656 -60.167969 10.617188 -62.953125 13.808594 -65.320312 C 17.011719 -67.699219 20.542969 -69.535156 24.394531 -70.824219 C 28.257812 -72.117188 32.316406 -72.761719 36.574219 -72.761719 C 40.394531 -72.761719 44.042969 -72.226562 47.523438 -71.152344 C 50.945312 -70.097656 54.15625 -68.648438 57.160156 -66.808594 L 60.140625 -64.980469 L 52.292969 -51.382812 L 49.121094 -53.433594 C 47.371094 -54.5625 45.417969 -55.460938 43.253906 -56.125 C 41.121094 -56.785156 38.894531 -57.113281 36.574219 -57.113281 C 33.386719 -57.113281 30.421875 -56.523438 27.675781 -55.347656 C 24.910156 -54.15625 22.480469 -52.511719 20.390625 -50.410156 C 18.300781 -48.304688 16.667969 -45.867188 15.488281 -43.097656 C 14.324219 -40.347656 13.742188 -37.394531 13.742188 -34.234375 C 13.742188 -31.074219 14.324219 -28.132812 15.488281 -25.402344 C 16.664062 -22.640625 18.285156 -20.214844 20.351562 -18.121094 C 22.410156 -16.035156 24.816406 -14.402344 27.566406 -13.214844 C 30.300781 -12.035156 33.253906 -11.429688 36.417969 -11.402344 C 38.894531 -11.375 41.265625 -11.738281 43.539062 -12.484375 C 45.835938 -13.242188 47.9375 -14.3125 49.851562 -15.699219 C 51.769531 -17.089844 53.445312 -18.746094 54.878906 -20.667969 C 56.3125 -22.585938 57.425781 -24.691406 58.226562 -26.976562 C 59.015625 -29.242188 59.425781 -31.640625 59.453125 -34.179688 L 63.042969 -34.140625 L 63.042969 -30.546875 L 32.792969 -30.546875 Z M 39.976562 -34.140625 L 36.386719 -34.140625 L 36.386719 -37.734375 L 66.675781 -37.734375 L 66.636719 -34.101562 C 66.601562 -30.777344 66.058594 -27.613281 65.007812 -24.609375 C 63.96875 -21.625 62.511719 -18.878906 60.636719 -16.371094 C 58.765625 -13.867188 56.578125 -11.703125 54.070312 -9.882812 C 51.554688 -8.058594 48.792969 -6.652344 45.789062 -5.660156 C 42.761719 -4.664062 39.617188 -4.183594 36.355469 -4.21875 C 32.222656 -4.253906 28.34375 -5.054688 24.71875 -6.617188 C 21.113281 -8.171875 17.953125 -10.324219 15.238281 -13.074219 C 12.535156 -15.8125 10.414062 -18.984375 8.878906 -22.582031 C 7.332031 -26.214844 6.554688 -30.097656 6.554688 -34.234375 C 6.554688 -38.371094 7.328125 -42.257812 8.875 -45.902344 C 10.414062 -49.523438 12.550781 -52.714844 15.292969 -55.472656 C 18.039062 -58.234375 21.222656 -60.394531 24.84375 -61.949219 C 28.492188 -63.515625 32.402344 -64.296875 36.574219 -64.296875 C 39.613281 -64.296875 42.546875 -63.863281 45.371094 -62.992188 C 48.167969 -62.132812 50.714844 -60.957031 53.019531 -59.46875 L 51.070312 -56.449219 L 47.960938 -58.246094 L 52.167969 -65.539062 L 55.28125 -63.746094 L 53.402344 -60.683594 C 50.914062 -62.210938 48.25 -63.410156 45.40625 -64.289062 C 42.617188 -65.148438 39.671875 -65.578125 36.574219 -65.578125 C 33.097656 -65.578125 29.796875 -65.054688 26.675781 -64.011719 C 23.546875 -62.960938 20.683594 -61.476562 18.089844 -59.550781 C 15.480469 -57.617188 13.214844 -55.335938 11.292969 -52.714844 C 9.375 -50.097656 7.894531 -47.226562 6.84375 -44.101562 C 5.796875 -41 5.277344 -37.707031 5.277344 -34.234375 C 5.277344 -30.789062 5.796875 -27.507812 6.84375 -24.382812 C 7.894531 -21.25 9.375 -18.382812 11.289062 -15.785156 C 13.210938 -13.175781 15.476562 -10.902344 18.089844 -8.964844 C 20.683594 -7.039062 23.539062 -5.550781 26.65625 -4.503906 C 29.761719 -3.460938 33.035156 -2.9375 36.480469 -2.9375 C 41.078125 -2.9375 45.242188 -3.667969 48.96875 -5.121094 C 52.648438 -6.5625 55.816406 -8.609375 58.46875 -11.261719 C 61.128906 -13.921875 63.183594 -17.085938 64.636719 -20.753906 C 66.105469 -24.460938 66.839844 -28.613281 66.839844 -33.207031 L 66.839844 -42.699219 L 70.433594 -42.699219 L 70.433594 -39.105469 L 36.386719 -39.105469 L 36.386719 -42.699219 L 39.976562 -42.699219 Z M 36.574219 -63.222656 C 39.519531 -63.222656 42.359375 -62.804688 45.085938 -61.964844 C 47.796875 -61.132812 50.292969 -59.96875 52.574219 -58.472656 L 55.355469 -56.648438 L 47.785156 -42.902344 L 44.527344 -45.097656 C 43.359375 -45.886719 42.074219 -46.515625 40.679688 -46.992188 C 39.355469 -47.441406 37.984375 -47.664062 36.574219 -47.664062 C 34.71875 -47.664062 32.976562 -47.324219 31.347656 -46.636719 C 29.707031 -45.945312 28.273438 -44.988281 27.046875 -43.761719 C 25.8125 -42.523438 24.839844 -41.089844 24.132812 -39.453125 C 23.441406 -37.847656 23.09375 -36.109375 23.09375 -34.234375 C 23.09375 -32.382812 23.4375 -30.652344 24.117188 -29.042969 C 24.808594 -27.414062 25.769531 -25.984375 27 -24.753906 C 28.234375 -23.519531 29.671875 -22.550781 31.308594 -21.839844 C 32.929688 -21.144531 34.667969 -20.78125 36.527344 -20.757812 C 38.734375 -20.757812 40.84375 -21.292969 42.855469 -22.367188 C 44.867188 -23.441406 46.484375 -24.894531 47.707031 -26.734375 L 50.695312 -24.742188 L 50.695312 -21.148438 L 32.792969 -21.148438 L 32.792969 -36.796875 L 65.695312 -36.796875 L 65.558594 -33.074219 C 65.414062 -29.214844 64.535156 -25.582031 62.921875 -22.171875 C 61.328125 -18.808594 59.203125 -15.859375 56.542969 -13.324219 C 53.882812 -10.789062 50.835938 -8.804688 47.402344 -7.371094 C 43.9375 -5.925781 40.265625 -5.199219 36.386719 -5.199219 C 32.386719 -5.234375 28.636719 -6.011719 25.136719 -7.53125 C 21.65625 -9.039062 18.601562 -11.117188 15.972656 -13.765625 C 13.339844 -16.414062 11.28125 -19.488281 9.789062 -22.980469 C 8.289062 -26.5 7.539062 -30.253906 7.539062 -34.234375 C 7.539062 -38.246094 8.289062 -42.015625 9.789062 -45.535156 C 11.285156 -49.035156 13.363281 -52.113281 16.035156 -54.765625 C 18.699219 -57.414062 21.777344 -59.480469 25.273438 -60.96875 C 28.792969 -62.472656 32.558594 -63.222656 36.574219 -63.222656 Z M 36.574219 -56.039062 C 33.539062 -56.039062 30.710938 -55.480469 28.089844 -54.359375 C 25.441406 -53.230469 23.109375 -51.667969 21.097656 -49.667969 C 19.09375 -47.675781 17.527344 -45.359375 16.398438 -42.71875 C 15.28125 -40.097656 14.722656 -37.269531 14.722656 -34.234375 C 14.722656 -31.230469 15.28125 -28.417969 16.398438 -25.796875 C 17.527344 -23.148438 19.085938 -20.828125 21.070312 -18.832031 C 23.050781 -16.835938 25.359375 -15.265625 27.992188 -14.121094 C 30.605469 -12.992188 33.402344 -12.410156 36.386719 -12.386719 C 39.304688 -12.386719 42.054688 -12.921875 44.636719 -14 C 47.25 -15.09375 49.566406 -16.601562 51.585938 -18.523438 C 53.601562 -20.449219 55.21875 -22.6875 56.429688 -25.25 C 57.621094 -27.765625 58.273438 -30.464844 58.378906 -33.339844 L 61.96875 -33.207031 L 61.96875 -29.613281 L 36.386719 -29.613281 L 36.386719 -33.207031 L 39.976562 -33.207031 L 39.976562 -24.742188 L 36.386719 -24.742188 L 36.386719 -28.332031 L 57.410156 -28.332031 L 53.6875 -22.746094 C 51.792969 -19.910156 49.3125 -17.667969 46.238281 -16.027344 C 43.167969 -14.390625 39.898438 -13.570312 36.429688 -13.570312 C 33.613281 -13.609375 30.957031 -14.167969 28.460938 -15.246094 C 25.984375 -16.316406 23.800781 -17.792969 21.917969 -19.675781 C 20.03125 -21.5625 18.558594 -23.75 17.503906 -26.238281 C 16.441406 -28.742188 15.910156 -31.410156 15.910156 -34.234375 C 15.910156 -37.097656 16.453125 -39.789062 17.539062 -42.300781 C 18.605469 -44.777344 20.082031 -46.957031 21.964844 -48.839844 C 23.855469 -50.730469 26.054688 -52.203125 28.5625 -53.257812 C 31.082031 -54.320312 33.75 -54.851562 36.574219 -54.851562 C 38.777344 -54.851562 40.914062 -54.5 42.988281 -53.792969 C 44.992188 -53.113281 46.84375 -52.203125 48.542969 -51.058594 L 46.535156 -48.078125 L 43.386719 -49.8125 L 47.457031 -57.199219 L 50.601562 -55.46875 L 48.632812 -52.464844 C 46.921875 -53.585938 45.035156 -54.464844 42.976562 -55.097656 C 40.9375 -55.722656 38.800781 -56.039062 36.574219 -56.039062 Z M 36.574219 -56.039062 "/></g></g></g><g fill="#265f28" fill-opacity="1"><g transform="translate(77.845191, 85.405628)"><g><path d="M 33.8125 -28.707031 C 35.476562 -28.707031 37.03125 -29.015625 38.484375 -29.636719 C 39.960938 -30.265625 41.257812 -31.140625 42.382812 -32.261719 C 43.511719 -33.390625 44.398438 -34.695312 45.042969 -36.167969 C 45.667969 -37.59375 45.980469 -39.132812 45.980469 -40.78125 L 45.980469 -44.898438 C 45.980469 -46.554688 45.667969 -48.117188 45.035156 -49.578125 C 44.390625 -51.074219 43.507812 -52.386719 42.382812 -53.511719 C 41.253906 -54.640625 39.945312 -55.527344 38.460938 -56.171875 C 37.015625 -56.800781 35.46875 -57.113281 33.8125 -57.113281 L 25.488281 -57.113281 C 23.839844 -57.113281 22.300781 -56.800781 20.875 -56.175781 C 19.402344 -55.53125 18.097656 -54.640625 16.96875 -53.511719 C 15.847656 -52.390625 14.976562 -51.089844 14.347656 -49.601562 C 13.726562 -48.132812 13.414062 -46.5625 13.414062 -44.898438 L 13.414062 3.546875 L -2.1875 3.546875 L -2.1875 -45.132812 C -2.1875 -48.882812 -1.445312 -52.425781 0.0390625 -55.761719 C 1.503906 -59.046875 3.511719 -61.941406 6.070312 -64.441406 C 8.617188 -66.9375 11.546875 -68.894531 14.855469 -70.320312 C 18.207031 -71.761719 21.753906 -72.480469 25.488281 -72.480469 L 33.8125 -72.480469 C 37.613281 -72.480469 41.1875 -71.761719 44.539062 -70.320312 C 47.867188 -68.890625 50.792969 -66.902344 53.316406 -64.359375 C 55.835938 -61.820312 57.8125 -58.882812 59.238281 -55.546875 C 60.679688 -52.179688 61.398438 -48.601562 61.398438 -44.804688 L 61.398438 -40.78125 C 61.398438 -38.082031 60.945312 -35.386719 60.042969 -32.695312 C 59.132812 -29.988281 57.816406 -27.515625 56.089844 -25.28125 C 54.304688 -22.96875 52.152344 -21.117188 49.628906 -19.726562 L 47.890625 -22.871094 L 50.230469 -25.597656 C 52.710938 -23.46875 54.789062 -20.992188 56.457031 -18.171875 C 58.085938 -15.414062 59.320312 -12.488281 60.152344 -9.402344 C 60.984375 -6.320312 61.398438 -3.203125 61.398438 -0.046875 L 61.398438 3.546875 L 45.796875 3.546875 L 45.796875 -0.046875 C 45.796875 -2.71875 45.375 -5.242188 44.53125 -7.609375 C 43.679688 -9.996094 42.488281 -12.15625 40.957031 -14.09375 C 39.433594 -16.019531 37.640625 -17.640625 35.578125 -18.949219 L 35.507812 -18.996094 L 35.4375 -19.046875 C 34.617188 -19.625 33.742188 -20.097656 32.8125 -20.457031 C 31.667969 -20.902344 30.515625 -21.320312 29.355469 -21.707031 L 30.492188 -28.707031 Z M 33.8125 -21.523438 L 30.492188 -21.523438 L 30.492188 -25.113281 L 31.628906 -28.523438 C 32.902344 -28.097656 34.164062 -27.640625 35.421875 -27.152344 C 36.894531 -26.578125 38.28125 -25.832031 39.578125 -24.917969 L 37.507812 -21.980469 L 39.4375 -25.011719 C 42.179688 -23.265625 44.5625 -21.113281 46.59375 -18.550781 C 48.613281 -15.996094 50.183594 -13.152344 51.296875 -10.019531 C 52.417969 -6.871094 52.980469 -3.546875 52.980469 -0.046875 L 49.386719 -0.046875 L 49.386719 -3.640625 L 57.804688 -3.640625 L 57.804688 -0.046875 L 54.214844 -0.046875 C 54.214844 -2.566406 53.878906 -5.0625 53.214844 -7.53125 C 52.550781 -9.988281 51.570312 -12.320312 50.269531 -14.515625 C 49.007812 -16.65625 47.433594 -18.53125 45.554688 -20.140625 L 41.621094 -23.511719 L 46.152344 -26.015625 C 47.808594 -26.929688 49.226562 -28.148438 50.402344 -29.671875 C 51.636719 -31.269531 52.578125 -33.039062 53.230469 -34.980469 C 53.886719 -36.933594 54.214844 -38.867188 54.214844 -40.78125 L 54.214844 -44.804688 C 54.214844 -47.617188 53.6875 -50.257812 52.632812 -52.722656 C 51.566406 -55.214844 50.09375 -57.40625 48.21875 -59.296875 C 46.347656 -61.179688 44.175781 -62.65625 41.699219 -63.71875 C 39.253906 -64.769531 36.625 -65.296875 33.8125 -65.296875 L 25.488281 -65.296875 C 22.738281 -65.296875 20.140625 -64.769531 17.695312 -63.71875 C 15.207031 -62.648438 13.003906 -61.179688 11.09375 -59.308594 C 9.191406 -57.445312 7.695312 -55.289062 6.601562 -52.835938 C 5.53125 -50.433594 4.996094 -47.863281 4.996094 -45.132812 L 4.996094 -0.046875 L 1.402344 -0.046875 L 1.402344 -3.640625 L 9.820312 -3.640625 L 9.820312 -0.046875 L 6.230469 -0.046875 L 6.230469 -44.898438 C 6.230469 -47.535156 6.730469 -50.035156 7.726562 -52.398438 C 8.722656 -54.746094 10.109375 -56.8125 11.886719 -58.59375 C 13.65625 -60.359375 15.691406 -61.75 17.992188 -62.757812 C 20.335938 -63.785156 22.835938 -64.296875 25.488281 -64.296875 L 33.8125 -64.296875 C 36.460938 -64.296875 38.964844 -63.785156 41.324219 -62.761719 C 43.644531 -61.753906 45.691406 -60.363281 47.460938 -58.59375 C 49.234375 -56.816406 50.625 -54.761719 51.632812 -52.421875 C 52.65625 -50.050781 53.167969 -47.542969 53.167969 -44.898438 L 53.167969 -40.78125 C 53.167969 -38.128906 52.652344 -35.628906 51.625 -33.285156 C 50.617188 -30.984375 49.230469 -28.949219 47.460938 -27.179688 C 45.683594 -25.402344 43.628906 -24.019531 41.300781 -23.027344 C 38.949219 -22.023438 36.453125 -21.523438 33.8125 -21.523438 Z M 7.210938 -44.804688 C 7.210938 -47.273438 7.667969 -49.617188 8.582031 -51.832031 C 9.484375 -54.023438 10.746094 -55.96875 12.367188 -57.667969 C 14.003906 -59.382812 15.9375 -60.734375 18.164062 -61.722656 C 20.417969 -62.722656 22.863281 -63.222656 25.488281 -63.222656 L 33.8125 -63.222656 C 36.3125 -63.222656 38.679688 -62.730469 40.914062 -61.75 C 43.097656 -60.792969 45.035156 -59.480469 46.722656 -57.8125 C 48.421875 -56.128906 49.753906 -54.183594 50.71875 -51.964844 C 51.695312 -49.714844 52.183594 -47.328125 52.183594 -44.804688 L 52.183594 -40.78125 C 52.183594 -38.28125 51.691406 -35.917969 50.707031 -33.691406 C 49.742188 -31.507812 48.410156 -29.585938 46.707031 -27.921875 C 45.015625 -26.273438 43.078125 -24.976562 40.890625 -24.035156 C 38.660156 -23.078125 36.300781 -22.597656 33.8125 -22.597656 L 7.210938 -22.597656 Z M 14.394531 -44.804688 L 14.394531 -26.191406 L 10.804688 -26.191406 L 10.804688 -29.78125 L 33.8125 -29.78125 C 35.316406 -29.78125 36.730469 -30.066406 38.054688 -30.636719 C 39.421875 -31.222656 40.632812 -32.03125 41.683594 -33.0625 C 42.726562 -34.082031 43.546875 -35.261719 44.136719 -36.601562 C 44.710938 -37.898438 45 -39.292969 45 -40.78125 L 45 -44.804688 C 45 -46.332031 44.710938 -47.765625 44.128906 -49.101562 C 43.535156 -50.46875 42.714844 -51.671875 41.671875 -52.703125 C 40.613281 -53.746094 39.402344 -54.570312 38.03125 -55.171875 C 36.710938 -55.75 35.308594 -56.039062 33.8125 -56.039062 L 25.488281 -56.039062 C 23.875 -56.039062 22.40625 -55.742188 21.074219 -55.152344 C 19.714844 -54.550781 18.546875 -53.734375 17.566406 -52.707031 C 16.566406 -51.660156 15.785156 -50.457031 15.222656 -49.09375 C 14.671875 -47.753906 14.394531 -46.324219 14.394531 -44.804688 Z M 36.488281 -44.898438 C 36.488281 -45.40625 36.371094 -45.867188 36.132812 -46.273438 C 35.871094 -46.71875 35.53125 -47.074219 35.109375 -47.335938 C 34.75 -47.554688 34.320312 -47.664062 33.8125 -47.664062 L 25.488281 -47.664062 C 24.996094 -47.664062 24.550781 -47.546875 24.148438 -47.308594 C 23.703125 -47.042969 23.34375 -46.683594 23.078125 -46.238281 C 22.839844 -45.835938 22.722656 -45.390625 22.722656 -44.898438 C 22.722656 -43.171875 22.734375 -41.457031 22.765625 -39.746094 C 22.796875 -37.996094 22.8125 -36.21875 22.8125 -34.421875 L 19.222656 -34.421875 L 19.222656 -38.015625 L 33.8125 -38.015625 C 34.304688 -38.015625 34.722656 -38.125 35.070312 -38.34375 C 35.511719 -38.625 35.863281 -38.992188 36.132812 -39.453125 C 36.371094 -39.863281 36.488281 -40.304688 36.488281 -40.78125 Z M 43.671875 -44.898438 L 43.671875 -40.78125 C 43.671875 -39.015625 43.230469 -37.367188 42.34375 -35.84375 C 41.488281 -34.371094 40.347656 -33.179688 38.914062 -32.273438 C 37.394531 -31.3125 35.691406 -30.828125 33.8125 -30.828125 L 15.628906 -30.828125 L 15.628906 -34.421875 C 15.628906 -36.175781 15.613281 -37.910156 15.582031 -39.617188 C 15.550781 -41.371094 15.535156 -43.128906 15.535156 -44.898438 C 15.535156 -46.710938 15.992188 -48.386719 16.910156 -49.917969 C 17.796875 -51.40625 18.980469 -52.589844 20.46875 -53.476562 C 22 -54.394531 23.675781 -54.851562 25.488281 -54.851562 L 33.8125 -54.851562 C 35.675781 -54.851562 37.367188 -54.382812 38.878906 -53.449219 C 40.328125 -52.558594 41.480469 -51.367188 42.34375 -49.882812 C 43.230469 -48.359375 43.671875 -46.695312 43.671875 -44.898438 Z M 36.394531 -0.046875 C 36.394531 -1.890625 36.054688 -3.601562 35.378906 -5.171875 C 34.691406 -6.765625 33.738281 -8.164062 32.515625 -9.359375 C 31.285156 -10.566406 29.855469 -11.507812 28.222656 -12.1875 C 26.605469 -12.859375 24.871094 -13.199219 23.011719 -13.199219 L 19.222656 -13.199219 L 19.222656 -16.789062 L 22.8125 -16.789062 L 22.8125 3.546875 L 7.210938 3.546875 L 7.210938 -28.707031 L 22.917969 -28.707031 C 26.078125 -28.707031 29.113281 -28.226562 32.019531 -27.261719 C 34.90625 -26.304688 37.566406 -24.957031 39.996094 -23.21875 C 42.425781 -21.480469 44.542969 -19.425781 46.351562 -17.046875 C 48.175781 -14.65625 49.585938 -12.023438 50.582031 -9.152344 C 51.589844 -6.261719 52.089844 -3.226562 52.089844 -0.046875 L 52.089844 3.546875 L 36.394531 3.546875 Z M 43.578125 -0.046875 L 39.988281 -0.046875 L 39.988281 -3.640625 L 48.5 -3.640625 L 48.5 -0.046875 L 44.90625 -0.046875 C 44.90625 -2.417969 44.535156 -4.667969 43.796875 -6.792969 C 43.046875 -8.945312 41.996094 -10.910156 40.636719 -12.695312 C 39.265625 -14.5 37.65625 -16.058594 35.816406 -17.375 C 33.976562 -18.691406 31.957031 -19.714844 29.761719 -20.441406 C 27.585938 -21.160156 25.304688 -21.523438 22.917969 -21.523438 L 10.804688 -21.523438 L 10.804688 -25.113281 L 14.394531 -25.113281 L 14.394531 -0.046875 L 10.804688 -0.046875 L 10.804688 -3.640625 L 19.222656 -3.640625 L 19.222656 -0.046875 L 15.628906 -0.046875 L 15.628906 -20.382812 L 23.011719 -20.382812 C 25.828125 -20.382812 28.484375 -19.863281 30.984375 -18.820312 C 33.46875 -17.785156 35.65625 -16.34375 37.542969 -14.492188 C 39.441406 -12.632812 40.917969 -10.476562 41.976562 -8.015625 C 43.046875 -5.535156 43.578125 -2.878906 43.578125 -0.046875 Z M 43.578125 -0.046875 "/></g></g></g><g fill="#265f28" fill-opacity="1"><g transform="translate(138.212103, 85.405628)"><g><path d="M -1.722656 -44.664062 C -1.722656 -48.433594 -1 -51.988281 0.445312 -55.328125 C 1.871094 -58.628906 3.839844 -61.535156 6.347656 -64.039062 C 8.851562 -66.542969 11.746094 -68.511719 15.03125 -69.941406 C 18.355469 -71.386719 21.886719 -72.109375 25.628906 -72.109375 L 53.402344 -72.109375 L 53.402344 -56.832031 L 25.628906 -56.832031 C 24.035156 -56.832031 22.53125 -56.527344 21.117188 -55.914062 C 19.660156 -55.28125 18.375 -54.414062 17.257812 -53.3125 C 16.152344 -52.21875 15.289062 -50.949219 14.660156 -49.503906 C 14.046875 -48.085938 13.742188 -46.566406 13.742188 -44.945312 L 13.742188 -23.617188 C 13.742188 -21.996094 14.046875 -20.476562 14.660156 -19.058594 C 15.289062 -17.613281 16.152344 -16.34375 17.257812 -15.25 C 18.375 -14.148438 19.660156 -13.28125 21.117188 -12.648438 C 22.53125 -12.035156 24.035156 -11.730469 25.628906 -11.730469 L 53.402344 -11.730469 L 53.402344 3.640625 L 25.628906 3.640625 C 21.886719 3.640625 18.355469 2.917969 15.03125 1.46875 C 11.742188 0.0390625 8.84375 -1.9375 6.335938 -4.460938 C 3.835938 -6.976562 1.875 -9.878906 0.445312 -13.160156 C -1 -16.484375 -1.722656 -20.003906 -1.722656 -23.710938 Z M 5.464844 -44.664062 L 5.464844 -23.710938 C 5.464844 -21 5.988281 -18.4375 7.035156 -16.023438 C 8.105469 -13.570312 9.570312 -11.402344 11.433594 -9.523438 C 13.292969 -7.652344 15.449219 -6.183594 17.894531 -5.117188 C 20.304688 -4.070312 22.882812 -3.546875 25.628906 -3.546875 L 49.808594 -3.546875 L 49.808594 0.046875 L 46.214844 0.046875 L 46.214844 -8.136719 L 49.808594 -8.136719 L 49.808594 -4.546875 L 25.628906 -4.546875 C 23.042969 -4.546875 20.585938 -5.050781 18.261719 -6.058594 C 15.976562 -7.046875 13.960938 -8.410156 12.207031 -10.144531 C 10.441406 -11.886719 9.0625 -13.90625 8.070312 -16.203125 C 7.058594 -18.53125 6.554688 -21 6.554688 -23.617188 L 6.554688 -44.945312 C 6.554688 -47.5625 7.058594 -50.03125 8.070312 -52.359375 C 9.0625 -54.65625 10.441406 -56.675781 12.207031 -58.417969 C 13.960938 -60.152344 15.976562 -61.515625 18.261719 -62.503906 C 20.585938 -63.511719 23.042969 -64.015625 25.628906 -64.015625 L 49.808594 -64.015625 L 49.808594 -60.425781 L 46.214844 -60.425781 L 46.214844 -68.515625 L 49.808594 -68.515625 L 49.808594 -64.921875 L 25.628906 -64.921875 C 22.882812 -64.921875 20.304688 -64.398438 17.894531 -63.351562 C 15.445312 -62.285156 13.289062 -60.820312 11.425781 -58.960938 C 9.566406 -57.101562 8.105469 -54.9375 7.039062 -52.476562 C 5.988281 -50.046875 5.464844 -47.441406 5.464844 -44.664062 Z M 15.769531 -44.945312 C 15.769531 -46.777344 16.238281 -48.449219 17.167969 -49.964844 C 18.042969 -51.382812 19.191406 -52.527344 20.609375 -53.402344 C 22.125 -54.335938 23.796875 -54.804688 25.628906 -54.804688 L 49.808594 -54.804688 L 49.808594 -51.210938 L 46.214844 -51.210938 L 46.214844 -59.441406 L 49.808594 -59.441406 L 49.808594 -55.851562 L 25.628906 -55.851562 C 24.164062 -55.851562 22.789062 -55.570312 21.503906 -55.003906 C 20.164062 -54.421875 18.984375 -53.621094 17.957031 -52.609375 C 16.949219 -51.609375 16.152344 -50.441406 15.574219 -49.105469 C 15.007812 -47.796875 14.722656 -46.410156 14.722656 -44.945312 L 14.722656 -34.796875 L 11.132812 -34.796875 L 11.132812 -38.386719 L 49.808594 -38.386719 L 49.808594 -34.796875 L 46.214844 -34.796875 L 46.214844 -43.074219 L 49.808594 -43.074219 L 49.808594 -39.480469 L 15.769531 -39.480469 Z M 22.953125 -44.945312 L 22.953125 -43.074219 L 19.363281 -43.074219 L 19.363281 -46.667969 L 53.402344 -46.667969 L 53.402344 -31.203125 L 7.539062 -31.203125 L 7.539062 -44.945312 C 7.539062 -47.40625 8.019531 -49.746094 8.980469 -51.960938 C 9.929688 -54.148438 11.238281 -56.066406 12.910156 -57.71875 C 14.566406 -59.355469 16.46875 -60.644531 18.625 -61.589844 C 20.828125 -62.554688 23.164062 -63.035156 25.628906 -63.035156 L 53.402344 -63.035156 L 53.402344 -47.617188 L 25.628906 -47.617188 C 25.15625 -47.617188 24.738281 -47.507812 24.382812 -47.289062 C 23.929688 -47.007812 23.5625 -46.644531 23.285156 -46.191406 C 23.066406 -45.835938 22.953125 -45.417969 22.953125 -44.945312 Z M 14.722656 -33.8125 L 14.722656 -23.617188 C 14.722656 -22.152344 15.007812 -20.765625 15.574219 -19.457031 C 16.152344 -18.121094 16.949219 -16.953125 17.957031 -15.953125 C 18.984375 -14.941406 20.164062 -14.140625 21.503906 -13.558594 C 22.789062 -12.992188 24.164062 -12.710938 25.628906 -12.710938 L 49.808594 -12.710938 L 49.808594 -9.121094 L 46.214844 -9.121094 L 46.214844 -17.351562 L 49.808594 -17.351562 L 49.808594 -13.757812 L 25.628906 -13.757812 C 23.796875 -13.757812 22.125 -14.226562 20.609375 -15.160156 C 19.183594 -16.039062 18.03125 -17.199219 17.15625 -18.644531 C 16.230469 -20.167969 15.769531 -21.824219 15.769531 -23.617188 L 15.769531 -29.082031 L 49.808594 -29.082031 L 49.808594 -25.488281 L 46.214844 -25.488281 L 46.214844 -33.8125 L 49.808594 -33.8125 L 49.808594 -30.222656 L 11.132812 -30.222656 L 11.132812 -33.8125 Z M 7.539062 -37.40625 L 53.402344 -37.40625 L 53.402344 -21.894531 L 19.363281 -21.894531 L 19.363281 -25.488281 L 22.953125 -25.488281 L 22.953125 -23.617188 C 22.953125 -23.164062 23.070312 -22.75 23.300781 -22.371094 C 23.578125 -21.914062 23.9375 -21.546875 24.382812 -21.273438 C 24.738281 -21.054688 25.15625 -20.945312 25.628906 -20.945312 L 53.402344 -20.945312 L 53.402344 -5.527344 L 25.628906 -5.527344 C 23.164062 -5.527344 20.828125 -6.007812 18.625 -6.972656 C 16.46875 -7.917969 14.566406 -9.207031 12.910156 -10.84375 C 11.238281 -12.496094 9.929688 -14.414062 8.980469 -16.601562 C 8.019531 -18.816406 7.539062 -21.15625 7.539062 -23.617188 Z M 7.539062 -37.40625 "/></g></g></g><g fill="#265f28" fill-opacity="1"><g transform="translate(191.284485, 85.405628)"><g><path d="M -1.722656 -44.664062 C -1.722656 -48.433594 -1 -51.988281 0.445312 -55.328125 C 1.871094 -58.628906 3.839844 -61.535156 6.347656 -64.039062 C 8.851562 -66.542969 11.746094 -68.511719 15.03125 -69.941406 C 18.355469 -71.386719 21.886719 -72.109375 25.628906 -72.109375 L 53.402344 -72.109375 L 53.402344 -56.832031 L 25.628906 -56.832031 C 24.035156 -56.832031 22.53125 -56.527344 21.117188 -55.914062 C 19.660156 -55.28125 18.375 -54.414062 17.257812 -53.3125 C 16.152344 -52.21875 15.289062 -50.949219 14.660156 -49.503906 C 14.046875 -48.085938 13.742188 -46.566406 13.742188 -44.945312 L 13.742188 -23.617188 C 13.742188 -21.996094 14.046875 -20.476562 14.660156 -19.058594 C 15.289062 -17.613281 16.152344 -16.34375 17.257812 -15.25 C 18.375 -14.148438 19.660156 -13.28125 21.117188 -12.648438 C 22.53125 -12.035156 24.035156 -11.730469 25.628906 -11.730469 L 53.402344 -11.730469 L 53.402344 3.640625 L 25.628906 3.640625 C 21.886719 3.640625 18.355469 2.917969 15.03125 1.46875 C 11.742188 0.0390625 8.84375 -1.9375 6.335938 -4.460938 C 3.835938 -6.976562 1.875 -9.878906 0.445312 -13.160156 C -1 -16.484375 -1.722656 -20.003906 -1.722656 -23.710938 Z M 5.464844 -44.664062 L 5.464844 -23.710938 C 5.464844 -21 5.988281 -18.4375 7.035156 -16.023438 C 8.105469 -13.570312 9.570312 -11.402344 11.433594 -9.523438 C 13.292969 -7.652344 15.449219 -6.183594 17.894531 -5.117188 C 20.304688 -4.070312 22.882812 -3.546875 25.628906 -3.546875 L 49.808594 -3.546875 L 49.808594 0.046875 L 46.214844 0.046875 L 46.214844 -8.136719 L 49.808594 -8.136719 L 49.808594 -4.546875 L 25.628906 -4.546875 C 23.042969 -4.546875 20.585938 -5.050781 18.261719 -6.058594 C 15.976562 -7.046875 13.960938 -8.410156 12.207031 -10.144531 C 10.441406 -11.886719 9.0625 -13.90625 8.070312 -16.203125 C 7.058594 -18.53125 6.554688 -21 6.554688 -23.617188 L 6.554688 -44.945312 C 6.554688 -47.5625 7.058594 -50.03125 8.070312 -52.359375 C 9.0625 -54.65625 10.441406 -56.675781 12.207031 -58.417969 C 13.960938 -60.152344 15.976562 -61.515625 18.261719 -62.503906 C 20.585938 -63.511719 23.042969 -64.015625 25.628906 -64.015625 L 49.808594 -64.015625 L 49.808594 -60.425781 L 46.214844 -60.425781 L 46.214844 -68.515625 L 49.808594 -68.515625 L 49.808594 -64.921875 L 25.628906 -64.921875 C 22.882812 -64.921875 20.304688 -64.398438 17.894531 -63.351562 C 15.445312 -62.285156 13.289062 -60.820312 11.425781 -58.960938 C 9.566406 -57.101562 8.105469 -54.9375 7.039062 -52.476562 C 5.988281 -50.046875 5.464844 -47.441406 5.464844 -44.664062 Z M 15.769531 -44.945312 C 15.769531 -46.777344 16.238281 -48.449219 17.167969 -49.964844 C 18.042969 -51.382812 19.191406 -52.527344 20.609375 -53.402344 C 22.125 -54.335938 23.796875 -54.804688 25.628906 -54.804688 L 49.808594 -54.804688 L 49.808594 -51.210938 L 46.214844 -51.210938 L 46.214844 -59.441406 L 49.808594 -59.441406 L 49.808594 -55.851562 L 25.628906 -55.851562 C 24.164062 -55.851562 22.789062 -55.570312 21.503906 -55.003906 C 20.164062 -54.421875 18.984375 -53.621094 17.957031 -52.609375 C 16.949219 -51.609375 16.152344 -50.441406 15.574219 -49.105469 C 15.007812 -47.796875 14.722656 -46.410156 14.722656 -44.945312 L 14.722656 -34.796875 L 11.132812 -34.796875 L 11.132812 -38.386719 L 49.808594 -38.386719 L 49.808594 -34.796875 L 46.214844 -34.796875 L 46.214844 -43.074219 L 49.808594 -43.074219 L 49.808594 -39.480469 L 15.769531 -39.480469 Z M 22.953125 -44.945312 L 22.953125 -43.074219 L 19.363281 -43.074219 L 19.363281 -46.667969 L 53.402344 -46.667969 L 53.402344 -31.203125 L 7.539062 -31.203125 L 7.539062 -44.945312 C 7.539062 -47.40625 8.019531 -49.746094 8.980469 -51.960938 C 9.929688 -54.148438 11.238281 -56.066406 12.910156 -57.71875 C 14.566406 -59.355469 16.46875 -60.644531 18.625 -61.589844 C 20.828125 -62.554688 23.164062 -63.035156 25.628906 -63.035156 L 53.402344 -63.035156 L 53.402344 -47.617188 L 25.628906 -47.617188 C 25.15625 -47.617188 24.738281 -47.507812 24.382812 -47.289062 C 23.929688 -47.007812 23.5625 -46.644531 23.285156 -46.191406 C 23.066406 -45.835938 22.953125 -45.417969 22.953125 -44.945312 Z M 14.722656 -33.8125 L 14.722656 -23.617188 C 14.722656 -22.152344 15.007812 -20.765625 15.574219 -19.457031 C 16.152344 -18.121094 16.949219 -16.953125 17.957031 -15.953125 C 18.984375 -14.941406 20.164062 -14.140625 21.503906 -13.558594 C 22.789062 -12.992188 24.164062 -12.710938 25.628906 -12.710938 L 49.808594 -12.710938 L 49.808594 -9.121094 L 46.214844 -9.121094 L 46.214844 -17.351562 L 49.808594 -17.351562 L 49.808594 -13.757812 L 25.628906 -13.757812 C 23.796875 -13.757812 22.125 -14.226562 20.609375 -15.160156 C 19.183594 -16.039062 18.03125 -17.199219 17.15625 -18.644531 C 16.230469 -20.167969 15.769531 -21.824219 15.769531 -23.617188 L 15.769531 -29.082031 L 49.808594 -29.082031 L 49.808594 -25.488281 L 46.214844 -25.488281 L 46.214844 -33.8125 L 49.808594 -33.8125 L 49.808594 -30.222656 L 11.132812 -30.222656 L 11.132812 -33.8125 Z M 7.539062 -37.40625 L 53.402344 -37.40625 L 53.402344 -21.894531 L 19.363281 -21.894531 L 19.363281 -25.488281 L 22.953125 -25.488281 L 22.953125 -23.617188 C 22.953125 -23.164062 23.070312 -22.75 23.300781 -22.371094 C 23.578125 -21.914062 23.9375 -21.546875 24.382812 -21.273438 C 24.738281 -21.054688 25.15625 -20.945312 25.628906 -20.945312 L 53.402344 -20.945312 L 53.402344 -5.527344 L 25.628906 -5.527344 C 23.164062 -5.527344 20.828125 -6.007812 18.625 -6.972656 C 16.46875 -7.917969 14.566406 -9.207031 12.910156 -10.84375 C 11.238281 -12.496094 9.929688 -14.414062 8.980469 -16.601562 C 8.019531 -18.816406 7.539062 -21.15625 7.539062 -23.617188 Z M 7.539062 -37.40625 "/></g></g></g><g fill="#265f28" fill-opacity="1"><g transform="translate(244.356868, 85.405628)"><g><path d="M -2.515625 -55.5625 C -2.515625 -58.773438 -2.011719 -61.539062 -1 -63.851562 C 0.0507812 -66.253906 1.480469 -68.171875 3.289062 -69.601562 C 5.070312 -71.011719 7.035156 -71.945312 9.1875 -72.402344 C 11.269531 -72.847656 13.355469 -72.867188 15.441406 -72.464844 C 17.515625 -72.058594 19.421875 -71.28125 21.160156 -70.128906 C 22.988281 -68.917969 24.433594 -67.355469 25.496094 -65.441406 L 45.078125 -30.8125 L 41.953125 -29.042969 L 38.359375 -28.980469 L 37.59375 -72.296875 L 53.355469 -72.296875 L 53.355469 -13.890625 C 53.355469 -11.628906 52.644531 -9.839844 51.222656 -8.523438 C 50.496094 -7.847656 49.671875 -7.367188 48.753906 -7.082031 C 47.867188 -6.804688 46.9375 -6.726562 45.960938 -6.835938 C 44.132812 -7.046875 42.496094 -7.925781 41.050781 -9.476562 L 40.804688 -9.742188 L 12.835938 -55.414062 C 12.679688 -55.683594 12.539062 -55.875 12.425781 -55.992188 C 12.414062 -56.003906 12.402344 -56.011719 12.394531 -56.019531 C 12.421875 -56 12.460938 -55.980469 12.503906 -55.960938 C 12.578125 -55.929688 12.675781 -55.914062 12.796875 -55.910156 C 12.960938 -55.90625 13.109375 -55.933594 13.242188 -55.988281 C 13.308594 -56.015625 13.363281 -56.050781 13.410156 -56.09375 C 13.390625 -56.070312 13.371094 -56.039062 13.351562 -55.996094 C 13.238281 -55.796875 13.179688 -55.433594 13.179688 -54.90625 L 13.179688 3.546875 L -2.566406 3.546875 Z M 4.667969 -55.558594 L 4.621094 -0.0429688 L 1.027344 -0.046875 L 1.027344 -3.640625 L 9.585938 -3.640625 L 9.585938 -0.046875 L 5.996094 -0.046875 L 5.996094 -54.90625 C 5.996094 -56.6875 6.359375 -58.226562 7.085938 -59.519531 C 7.914062 -60.984375 9.039062 -62.019531 10.46875 -62.617188 C 11.273438 -62.953125 12.105469 -63.113281 12.960938 -63.09375 C 13.777344 -63.074219 14.578125 -62.894531 15.371094 -62.550781 C 16.796875 -61.929688 17.996094 -60.800781 18.964844 -59.167969 L 46.746094 -13.800781 L 43.683594 -11.925781 L 46.3125 -14.375 C 46.480469 -14.191406 46.628906 -14.066406 46.753906 -13.996094 C 46.777344 -13.984375 46.792969 -13.972656 46.804688 -13.96875 C 46.796875 -13.972656 46.789062 -13.972656 46.78125 -13.976562 L 46.769531 -13.972656 C 46.722656 -13.96875 46.675781 -13.957031 46.621094 -13.941406 C 46.5 -13.90625 46.40625 -13.851562 46.335938 -13.785156 C 46.234375 -13.695312 46.167969 -13.601562 46.136719 -13.507812 C 46.15625 -13.570312 46.167969 -13.699219 46.167969 -13.890625 L 46.167969 -68.703125 L 49.761719 -68.703125 L 49.761719 -65.109375 L 41.25 -65.109375 L 41.25 -68.703125 L 44.839844 -68.765625 L 45.542969 -29.105469 L 38.824219 -27.273438 L 19.214844 -61.953125 C 18.71875 -62.847656 18.042969 -63.574219 17.191406 -64.140625 C 16.246094 -64.765625 15.207031 -65.1875 14.070312 -65.410156 C 12.945312 -65.628906 11.816406 -65.617188 10.6875 -65.375 C 9.628906 -65.152344 8.648438 -64.679688 7.746094 -63.96875 C 6.875 -63.277344 6.15625 -62.28125 5.582031 -60.972656 C 4.972656 -59.578125 4.667969 -57.773438 4.667969 -55.5625 Z M 7.023438 -0.0507812 L 7.070312 -54.910156 C 7.070312 -57.25 7.675781 -59.042969 8.882812 -60.285156 C 9.597656 -61.023438 10.421875 -61.523438 11.355469 -61.78125 C 12.316406 -62.050781 13.300781 -62.039062 14.300781 -61.75 C 15.9375 -61.277344 17.246094 -60.183594 18.226562 -58.464844 L 15.105469 -56.683594 L 18.171875 -58.554688 L 45.953125 -13.050781 L 42.886719 -11.175781 L 45.523438 -13.617188 C 45.835938 -13.28125 46.121094 -13.078125 46.375 -13.007812 C 46.605469 -12.945312 46.785156 -12.9375 46.914062 -12.980469 C 46.96875 -12.996094 47.023438 -13.042969 47.078125 -13.125 C 47.09375 -13.148438 47.113281 -13.195312 47.132812 -13.261719 C 47.175781 -13.425781 47.199219 -13.632812 47.199219 -13.890625 L 47.199219 -72.296875 L 62.941406 -72.296875 L 62.941406 -11.410156 C 62.941406 -8.679688 62.414062 -6.230469 61.363281 -4.066406 C 60.324219 -1.921875 58.917969 -0.128906 57.152344 1.308594 C 55.425781 2.722656 53.507812 3.738281 51.410156 4.355469 C 49.277344 4.988281 47.109375 5.148438 44.898438 4.84375 C 42.660156 4.535156 40.558594 3.734375 38.59375 2.4375 C 36.617188 1.132812 34.957031 -0.664062 33.613281 -2.953125 L 15.691406 -33.980469 L 18.800781 -35.777344 L 22.394531 -35.8125 L 22.753906 3.546875 L 7.019531 3.546875 Z M 14.207031 -0.0429688 L 10.617188 -0.046875 L 10.617188 -3.640625 L 19.128906 -3.640625 L 19.128906 -0.046875 L 15.535156 -0.015625 L 15.082031 -49.394531 L 39.8125 -6.585938 C 40.589844 -5.257812 41.503906 -4.25 42.550781 -3.558594 C 43.609375 -2.863281 44.71875 -2.433594 45.878906 -2.273438 C 47.066406 -2.109375 48.234375 -2.195312 49.375 -2.535156 C 50.550781 -2.878906 51.628906 -3.453125 52.613281 -4.257812 C 53.558594 -5.03125 54.320312 -6.011719 54.902344 -7.207031 C 55.472656 -8.378906 55.757812 -9.78125 55.757812 -11.410156 L 55.757812 -68.703125 L 59.347656 -68.703125 L 59.347656 -65.109375 L 50.789062 -65.109375 L 50.789062 -68.703125 L 54.382812 -68.703125 L 54.382812 -13.890625 C 54.382812 -11.980469 53.910156 -10.347656 52.957031 -8.996094 C 51.988281 -7.609375 50.714844 -6.664062 49.148438 -6.148438 C 47.65625 -5.664062 46.105469 -5.636719 44.496094 -6.074219 C 42.910156 -6.503906 41.496094 -7.390625 40.25 -8.738281 L 40.007812 -9 L 12.011719 -54.855469 L 11.988281 -54.902344 C 11.949219 -54.96875 11.910156 -55.027344 11.878906 -55.066406 L 11.882812 -55.066406 C 11.992188 -54.96875 12.132812 -54.894531 12.308594 -54.84375 C 12.609375 -54.757812 12.933594 -54.761719 13.28125 -54.859375 C 13.597656 -54.949219 13.847656 -55.085938 14.035156 -55.277344 C 14.140625 -55.390625 14.226562 -55.5 14.285156 -55.617188 C 14.300781 -55.648438 14.316406 -55.671875 14.324219 -55.695312 C 14.277344 -55.53125 14.253906 -55.265625 14.253906 -54.902344 Z M 14.207031 -0.0429688 "/></g></g></g><g fill="#84bd86" fill-opacity="1"><g transform="translate(5.273986, 85.405628)"><g><path d="M 36.390625 -34.140625 L 36.390625 -42.703125 L 70.4375 -42.703125 L 70.4375 -33.203125 C 70.4375 -28.148438 69.613281 -23.554688 67.96875 -19.421875 C 66.332031 -15.296875 64.007812 -11.726562 61 -8.71875 C 58 -5.707031 54.425781 -3.390625 50.28125 -1.765625 C 46.132812 -0.148438 41.535156 0.65625 36.484375 0.65625 C 32.648438 0.65625 28.992188 0.0703125 25.515625 -1.09375 C 22.035156 -2.269531 18.84375 -3.929688 15.9375 -6.078125 C 13.039062 -8.234375 10.523438 -10.757812 8.390625 -13.65625 C 6.253906 -16.550781 4.601562 -19.742188 3.4375 -23.234375 C 2.269531 -26.734375 1.6875 -30.398438 1.6875 -34.234375 C 1.6875 -38.097656 2.269531 -41.769531 3.4375 -45.25 C 4.601562 -48.726562 6.253906 -51.921875 8.390625 -54.828125 C 10.523438 -57.742188 13.039062 -60.273438 15.9375 -62.421875 C 18.84375 -64.578125 22.039062 -66.238281 25.53125 -67.40625 C 29.03125 -68.582031 32.710938 -69.171875 36.578125 -69.171875 C 40.035156 -69.171875 43.332031 -68.6875 46.46875 -67.71875 C 49.601562 -66.75 52.539062 -65.425781 55.28125 -63.75 L 51.078125 -56.453125 C 49.046875 -57.753906 46.789062 -58.785156 44.3125 -59.546875 C 41.832031 -60.316406 39.253906 -60.703125 36.578125 -60.703125 C 32.890625 -60.703125 29.445312 -60.015625 26.25 -58.640625 C 23.0625 -57.273438 20.257812 -55.375 17.84375 -52.9375 C 15.425781 -50.507812 13.539062 -47.695312 12.1875 -44.5 C 10.832031 -41.300781 10.15625 -37.878906 10.15625 -34.234375 C 10.15625 -30.585938 10.832031 -27.171875 12.1875 -23.984375 C 13.539062 -20.804688 15.410156 -18.007812 17.796875 -15.59375 C 20.179688 -13.175781 22.960938 -11.28125 26.140625 -9.90625 C 29.316406 -8.539062 32.734375 -7.84375 36.390625 -7.8125 C 39.253906 -7.78125 42.007812 -8.195312 44.65625 -9.0625 C 47.3125 -9.9375 49.742188 -11.175781 51.953125 -12.78125 C 54.171875 -14.394531 56.101562 -16.304688 57.75 -18.515625 C 59.40625 -20.734375 60.691406 -23.160156 61.609375 -25.796875 C 62.535156 -28.429688 63.015625 -31.210938 63.046875 -34.140625 Z M 36.578125 -59.625 C 39.160156 -59.625 41.644531 -59.257812 44.03125 -58.53125 C 46.414062 -57.800781 48.609375 -56.78125 50.609375 -55.46875 L 46.53125 -48.078125 C 45.101562 -49.046875 43.535156 -49.816406 41.828125 -50.390625 C 40.128906 -50.972656 38.378906 -51.265625 36.578125 -51.265625 C 34.234375 -51.265625 32.023438 -50.828125 29.953125 -49.953125 C 27.878906 -49.078125 26.0625 -47.859375 24.5 -46.296875 C 22.945312 -44.742188 21.722656 -42.9375 20.828125 -40.875 C 19.941406 -38.8125 19.5 -36.597656 19.5 -34.234375 C 19.5 -31.898438 19.9375 -29.703125 20.8125 -27.640625 C 21.6875 -25.578125 22.898438 -23.765625 24.453125 -22.203125 C 26.015625 -20.648438 27.820312 -19.425781 29.875 -18.53125 C 31.9375 -17.644531 34.140625 -17.1875 36.484375 -17.15625 C 39.316406 -17.15625 42.003906 -17.832031 44.546875 -19.1875 C 47.085938 -20.550781 49.140625 -22.398438 50.703125 -24.734375 L 36.390625 -24.734375 L 36.390625 -33.203125 L 61.96875 -33.203125 C 61.84375 -29.835938 61.078125 -26.671875 59.671875 -23.703125 C 58.273438 -20.742188 56.40625 -18.148438 54.0625 -15.921875 C 51.726562 -13.691406 49.046875 -11.945312 46.015625 -10.6875 C 42.992188 -9.425781 39.785156 -8.796875 36.390625 -8.796875 C 32.890625 -8.828125 29.613281 -9.503906 26.5625 -10.828125 C 23.507812 -12.148438 20.828125 -13.972656 18.515625 -16.296875 C 16.210938 -18.617188 14.40625 -21.316406 13.09375 -24.390625 C 11.78125 -27.460938 11.125 -30.742188 11.125 -34.234375 C 11.125 -37.753906 11.78125 -41.050781 13.09375 -44.125 C 14.40625 -47.195312 16.226562 -49.894531 18.5625 -52.21875 C 20.90625 -54.539062 23.609375 -56.351562 26.671875 -57.65625 C 29.742188 -58.96875 33.046875 -59.625 36.578125 -59.625 Z M 36.578125 -59.625 "/></g></g></g><g fill="#84bd86" fill-opacity="1"><g transform="translate(77.845191, 85.405628)"><g><path d="M 33.8125 -25.109375 C 35.96875 -25.109375 37.992188 -25.515625 39.890625 -26.328125 C 41.796875 -27.140625 43.472656 -28.269531 44.921875 -29.71875 C 46.367188 -31.164062 47.503906 -32.832031 48.328125 -34.71875 C 49.160156 -36.613281 49.578125 -38.632812 49.578125 -40.78125 L 49.578125 -44.890625 C 49.578125 -47.046875 49.160156 -49.082031 48.328125 -51 C 47.503906 -52.914062 46.367188 -54.597656 44.921875 -56.046875 C 43.472656 -57.492188 41.796875 -58.628906 39.890625 -59.453125 C 37.992188 -60.285156 35.96875 -60.703125 33.8125 -60.703125 L 25.484375 -60.703125 C 23.335938 -60.703125 21.320312 -60.285156 19.4375 -59.453125 C 17.550781 -58.628906 15.878906 -57.492188 14.421875 -56.046875 C 12.972656 -54.597656 11.84375 -52.914062 11.03125 -51 C 10.226562 -49.082031 9.828125 -47.046875 9.828125 -44.890625 L 9.828125 -0.046875 L 1.40625 -0.046875 L 1.40625 -45.125 C 1.40625 -48.375 2.039062 -51.429688 3.3125 -54.296875 C 4.59375 -57.160156 6.347656 -59.679688 8.578125 -61.859375 C 10.804688 -64.046875 13.367188 -65.765625 16.265625 -67.015625 C 19.171875 -68.265625 22.242188 -68.890625 25.484375 -68.890625 L 33.8125 -68.890625 C 37.113281 -68.890625 40.210938 -68.265625 43.109375 -67.015625 C 46.015625 -65.765625 48.566406 -64.03125 50.765625 -61.8125 C 52.960938 -59.601562 54.6875 -57.039062 55.9375 -54.125 C 57.1875 -51.21875 57.8125 -48.109375 57.8125 -44.796875 L 57.8125 -40.78125 C 57.8125 -38.476562 57.421875 -36.164062 56.640625 -33.84375 C 55.859375 -31.519531 54.726562 -29.394531 53.25 -27.46875 C 51.769531 -25.550781 49.984375 -24.019531 47.890625 -22.875 C 50.078125 -21 51.898438 -18.820312 53.359375 -16.34375 C 54.828125 -13.863281 55.9375 -11.234375 56.6875 -8.453125 C 57.4375 -5.679688 57.8125 -2.878906 57.8125 -0.046875 L 49.390625 -0.046875 C 49.390625 -3.128906 48.894531 -6.050781 47.90625 -8.8125 C 46.925781 -11.570312 45.546875 -14.070312 43.765625 -16.3125 C 41.992188 -18.5625 39.910156 -20.453125 37.515625 -21.984375 C 36.453125 -22.734375 35.316406 -23.335938 34.109375 -23.796875 C 32.910156 -24.265625 31.707031 -24.703125 30.5 -25.109375 Z M 10.796875 -44.796875 C 10.796875 -46.796875 11.160156 -48.679688 11.890625 -50.453125 C 12.628906 -52.234375 13.65625 -53.8125 14.96875 -55.1875 C 16.28125 -56.5625 17.832031 -57.644531 19.625 -58.4375 C 21.414062 -59.226562 23.367188 -59.625 25.484375 -59.625 L 33.8125 -59.625 C 35.8125 -59.625 37.695312 -59.234375 39.46875 -58.453125 C 41.25 -57.679688 42.820312 -56.613281 44.1875 -55.25 C 45.5625 -53.894531 46.640625 -52.320312 47.421875 -50.53125 C 48.203125 -48.738281 48.59375 -46.828125 48.59375 -44.796875 L 48.59375 -40.78125 C 48.59375 -38.78125 48.203125 -36.898438 47.421875 -35.140625 C 46.640625 -33.378906 45.5625 -31.828125 44.1875 -30.484375 C 42.820312 -29.148438 41.25 -28.097656 39.46875 -27.328125 C 37.695312 -26.566406 35.8125 -26.1875 33.8125 -26.1875 L 10.796875 -26.1875 Z M 40.078125 -44.890625 C 40.078125 -46.046875 39.796875 -47.109375 39.234375 -48.078125 C 38.671875 -49.046875 37.921875 -49.816406 36.984375 -50.390625 C 36.054688 -50.972656 35 -51.265625 33.8125 -51.265625 L 25.484375 -51.265625 C 24.335938 -51.265625 23.28125 -50.972656 22.3125 -50.390625 C 21.34375 -49.816406 20.566406 -49.046875 19.984375 -48.078125 C 19.410156 -47.109375 19.125 -46.046875 19.125 -44.890625 C 19.125 -43.148438 19.140625 -41.414062 19.171875 -39.6875 C 19.203125 -37.957031 19.21875 -36.203125 19.21875 -34.421875 L 33.8125 -34.421875 C 35 -34.421875 36.054688 -34.71875 36.984375 -35.3125 C 37.921875 -35.90625 38.671875 -36.679688 39.234375 -37.640625 C 39.796875 -38.609375 40.078125 -39.65625 40.078125 -40.78125 Z M 39.984375 -0.046875 C 39.984375 -2.378906 39.546875 -4.5625 38.671875 -6.59375 C 37.804688 -8.625 36.59375 -10.398438 35.03125 -11.921875 C 33.46875 -13.453125 31.65625 -14.644531 29.59375 -15.5 C 27.539062 -16.363281 25.347656 -16.796875 23.015625 -16.796875 L 19.21875 -16.796875 L 19.21875 -0.046875 L 10.796875 -0.046875 L 10.796875 -25.109375 L 22.921875 -25.109375 C 25.691406 -25.109375 28.347656 -24.6875 30.890625 -23.84375 C 33.429688 -23.007812 35.769531 -21.828125 37.90625 -20.296875 C 40.039062 -18.765625 41.898438 -16.953125 43.484375 -14.859375 C 45.078125 -12.773438 46.3125 -10.476562 47.1875 -7.96875 C 48.0625 -5.457031 48.5 -2.816406 48.5 -0.046875 Z M 39.984375 -0.046875 "/></g></g></g><g fill="#84bd86" fill-opacity="1"><g transform="translate(138.212103, 85.405628)"><g><path d="M 1.875 -44.65625 C 1.875 -47.9375 2.492188 -51.015625 3.734375 -53.890625 C 4.984375 -56.773438 6.695312 -59.3125 8.875 -61.5 C 11.0625 -63.6875 13.585938 -65.398438 16.453125 -66.640625 C 19.328125 -67.890625 22.382812 -68.515625 25.625 -68.515625 L 49.8125 -68.515625 L 49.8125 -60.421875 L 25.625 -60.421875 C 23.539062 -60.421875 21.5625 -60.015625 19.6875 -59.203125 C 17.820312 -58.398438 16.171875 -57.285156 14.734375 -55.859375 C 13.296875 -54.441406 12.171875 -52.796875 11.359375 -50.921875 C 10.554688 -49.054688 10.15625 -47.0625 10.15625 -44.9375 L 10.15625 -23.625 C 10.15625 -21.5 10.554688 -19.5 11.359375 -17.625 C 12.171875 -15.757812 13.296875 -14.113281 14.734375 -12.6875 C 16.171875 -11.269531 17.820312 -10.15625 19.6875 -9.34375 C 21.5625 -8.539062 23.539062 -8.140625 25.625 -8.140625 L 49.8125 -8.140625 L 49.8125 0.046875 L 25.625 0.046875 C 22.382812 0.046875 19.328125 -0.570312 16.453125 -1.8125 C 13.585938 -3.0625 11.0625 -4.785156 8.875 -6.984375 C 6.695312 -9.179688 4.984375 -11.710938 3.734375 -14.578125 C 2.492188 -17.453125 1.875 -20.5 1.875 -23.71875 Z M 19.359375 -44.9375 C 19.359375 -46.09375 19.644531 -47.140625 20.21875 -48.078125 C 20.800781 -49.015625 21.5625 -49.769531 22.5 -50.34375 C 23.4375 -50.925781 24.476562 -51.21875 25.625 -51.21875 L 49.8125 -51.21875 L 49.8125 -59.4375 L 25.625 -59.4375 C 23.664062 -59.4375 21.8125 -59.054688 20.0625 -58.296875 C 18.3125 -57.535156 16.765625 -56.488281 15.421875 -55.15625 C 14.085938 -53.832031 13.035156 -52.289062 12.265625 -50.53125 C 11.503906 -48.769531 11.125 -46.90625 11.125 -44.9375 L 11.125 -34.796875 L 49.8125 -34.796875 L 49.8125 -43.078125 L 19.359375 -43.078125 Z M 11.125 -33.8125 L 11.125 -23.625 C 11.125 -21.65625 11.503906 -19.789062 12.265625 -18.03125 C 13.035156 -16.269531 14.085938 -14.722656 15.421875 -13.390625 C 16.765625 -12.066406 18.3125 -11.023438 20.0625 -10.265625 C 21.8125 -9.503906 23.664062 -9.125 25.625 -9.125 L 49.8125 -9.125 L 49.8125 -17.34375 L 25.625 -17.34375 C 24.476562 -17.34375 23.4375 -17.628906 22.5 -18.203125 C 21.5625 -18.785156 20.800781 -19.550781 20.21875 -20.5 C 19.644531 -21.457031 19.359375 -22.5 19.359375 -23.625 L 19.359375 -25.484375 L 49.8125 -25.484375 L 49.8125 -33.8125 Z M 11.125 -33.8125 "/></g></g></g><g fill="#84bd86" fill-opacity="1"><g transform="translate(191.284485, 85.405628)"><g><path d="M 1.875 -44.65625 C 1.875 -47.9375 2.492188 -51.015625 3.734375 -53.890625 C 4.984375 -56.773438 6.695312 -59.3125 8.875 -61.5 C 11.0625 -63.6875 13.585938 -65.398438 16.453125 -66.640625 C 19.328125 -67.890625 22.382812 -68.515625 25.625 -68.515625 L 49.8125 -68.515625 L 49.8125 -60.421875 L 25.625 -60.421875 C 23.539062 -60.421875 21.5625 -60.015625 19.6875 -59.203125 C 17.820312 -58.398438 16.171875 -57.285156 14.734375 -55.859375 C 13.296875 -54.441406 12.171875 -52.796875 11.359375 -50.921875 C 10.554688 -49.054688 10.15625 -47.0625 10.15625 -44.9375 L 10.15625 -23.625 C 10.15625 -21.5 10.554688 -19.5 11.359375 -17.625 C 12.171875 -15.757812 13.296875 -14.113281 14.734375 -12.6875 C 16.171875 -11.269531 17.820312 -10.15625 19.6875 -9.34375 C 21.5625 -8.539062 23.539062 -8.140625 25.625 -8.140625 L 49.8125 -8.140625 L 49.8125 0.046875 L 25.625 0.046875 C 22.382812 0.046875 19.328125 -0.570312 16.453125 -1.8125 C 13.585938 -3.0625 11.0625 -4.785156 8.875 -6.984375 C 6.695312 -9.179688 4.984375 -11.710938 3.734375 -14.578125 C 2.492188 -17.453125 1.875 -20.5 1.875 -23.71875 Z M 19.359375 -44.9375 C 19.359375 -46.09375 19.644531 -47.140625 20.21875 -48.078125 C 20.800781 -49.015625 21.5625 -49.769531 22.5 -50.34375 C 23.4375 -50.925781 24.476562 -51.21875 25.625 -51.21875 L 49.8125 -51.21875 L 49.8125 -59.4375 L 25.625 -59.4375 C 23.664062 -59.4375 21.8125 -59.054688 20.0625 -58.296875 C 18.3125 -57.535156 16.765625 -56.488281 15.421875 -55.15625 C 14.085938 -53.832031 13.035156 -52.289062 12.265625 -50.53125 C 11.503906 -48.769531 11.125 -46.90625 11.125 -44.9375 L 11.125 -34.796875 L 49.8125 -34.796875 L 49.8125 -43.078125 L 19.359375 -43.078125 Z M 11.125 -33.8125 L 11.125 -23.625 C 11.125 -21.65625 11.503906 -19.789062 12.265625 -18.03125 C 13.035156 -16.269531 14.085938 -14.722656 15.421875 -13.390625 C 16.765625 -12.066406 18.3125 -11.023438 20.0625 -10.265625 C 21.8125 -9.503906 23.664062 -9.125 25.625 -9.125 L 49.8125 -9.125 L 49.8125 -17.34375 L 25.625 -17.34375 C 24.476562 -17.34375 23.4375 -17.628906 22.5 -18.203125 C 21.5625 -18.785156 20.800781 -19.550781 20.21875 -20.5 C 19.644531 -21.457031 19.359375 -22.5 19.359375 -23.625 L 19.359375 -25.484375 L 49.8125 -25.484375 L 49.8125 -33.8125 Z M 11.125 -33.8125 "/></g></g></g><g fill="#84bd86" fill-opacity="1"><g transform="translate(244.356868, 85.405628)"><g><path d="M 1.078125 -55.5625 C 1.078125 -58.269531 1.476562 -60.550781 2.28125 -62.40625 C 3.09375 -64.257812 4.171875 -65.71875 5.515625 -66.78125 C 6.859375 -67.84375 8.332031 -68.546875 9.9375 -68.890625 C 11.539062 -69.234375 13.144531 -69.25 14.75 -68.9375 C 16.351562 -68.625 17.828125 -68.019531 19.171875 -67.125 C 20.515625 -66.238281 21.578125 -65.097656 22.359375 -63.703125 L 41.953125 -29.046875 L 41.25 -68.703125 L 49.765625 -68.703125 L 49.765625 -13.890625 C 49.765625 -12.671875 49.4375 -11.757812 48.78125 -11.15625 C 48.125 -10.550781 47.316406 -10.300781 46.359375 -10.40625 C 45.410156 -10.507812 44.519531 -11.015625 43.6875 -11.921875 L 15.90625 -57.296875 C 15.3125 -58.285156 14.65625 -58.9375 13.9375 -59.25 C 13.21875 -59.5625 12.519531 -59.578125 11.84375 -59.296875 C 11.175781 -59.015625 10.632812 -58.5 10.21875 -57.75 C 9.800781 -57.007812 9.59375 -56.0625 9.59375 -54.90625 L 9.59375 -0.046875 L 1.03125 -0.046875 Z M 10.609375 -0.046875 L 10.65625 -54.90625 C 10.65625 -56.28125 10.921875 -57.238281 11.453125 -57.78125 C 11.984375 -58.320312 12.597656 -58.492188 13.296875 -58.296875 C 14.003906 -58.097656 14.609375 -57.5625 15.109375 -56.6875 L 42.890625 -11.171875 C 43.671875 -10.335938 44.519531 -9.796875 45.4375 -9.546875 C 46.351562 -9.296875 47.21875 -9.300781 48.03125 -9.5625 C 48.84375 -9.832031 49.503906 -10.332031 50.015625 -11.0625 C 50.535156 -11.789062 50.796875 -12.734375 50.796875 -13.890625 L 50.796875 -68.703125 L 59.34375 -68.703125 L 59.34375 -11.40625 C 59.34375 -9.226562 58.9375 -7.304688 58.125 -5.640625 C 57.320312 -3.972656 56.238281 -2.582031 54.875 -1.46875 C 53.519531 -0.363281 52.023438 0.425781 50.390625 0.90625 C 48.753906 1.394531 47.085938 1.519531 45.390625 1.28125 C 43.691406 1.050781 42.082031 0.4375 40.5625 -0.5625 C 39.050781 -1.5625 37.769531 -2.960938 36.71875 -4.765625 L 18.796875 -35.78125 L 19.125 -0.046875 Z M 10.609375 -0.046875 "/></g></g></g></g></g><g transform="matrix(1, 0, 0, 1, 47, 91)"><g clip-path="url(#7ccd1580b5)"><g fill="#265f28" fill-opacity="1"><g transform="translate(5.662787, 92.21879)"><g><path d="M 63.300781 -50.878906 C 63.300781 -48.402344 62.972656 -46 62.324219 -43.671875 C 61.679688 -41.371094 60.769531 -39.203125 59.597656 -37.167969 L 56.234375 -39.109375 L 59.070312 -41.757812 C 61.324219 -39.347656 63.085938 -36.554688 64.359375 -33.378906 C 65.640625 -30.1875 66.28125 -26.824219 66.28125 -23.292969 C 66.28125 -19.566406 65.582031 -16.054688 64.179688 -12.753906 C 62.789062 -9.492188 60.871094 -6.613281 58.421875 -4.125 C 55.960938 -1.625 53.105469 0.324219 49.863281 1.722656 C 46.59375 3.128906 43.09375 3.832031 39.359375 3.832031 L -2.316406 3.832031 L -2.316406 -78.003906 L 36.277344 -78.003906 C 40.011719 -78.003906 43.511719 -77.300781 46.78125 -75.894531 C 50.015625 -74.5 52.878906 -72.5625 55.367188 -70.070312 C 57.859375 -67.578125 59.800781 -64.707031 61.195312 -61.449219 C 62.597656 -58.167969 63.300781 -54.644531 63.300781 -50.878906 Z M 55.539062 -50.878906 C 55.539062 -53.582031 55.042969 -56.089844 54.058594 -58.398438 C 53.058594 -60.734375 51.664062 -62.796875 49.878906 -64.582031 C 48.089844 -66.371094 46.035156 -67.765625 43.710938 -68.765625 C 41.421875 -69.75 38.945312 -70.242188 36.277344 -70.242188 L 1.566406 -70.242188 L 1.566406 -74.121094 L 5.449219 -74.121094 L 5.449219 -0.0507812 L 1.566406 -0.0507812 L 1.566406 -3.929688 L 39.359375 -3.929688 C 42.027344 -3.929688 44.503906 -4.425781 46.792969 -5.410156 C 49.109375 -6.40625 51.140625 -7.792969 52.890625 -9.570312 C 54.648438 -11.355469 56.03125 -13.433594 57.035156 -15.792969 C 58.023438 -18.121094 58.519531 -20.621094 58.519531 -23.292969 C 58.519531 -25.824219 58.066406 -28.222656 57.15625 -30.488281 C 56.242188 -32.765625 54.988281 -34.757812 53.398438 -36.457031 L 51.4375 -38.558594 L 52.875 -41.046875 C 53.722656 -42.515625 54.378906 -44.085938 54.847656 -45.761719 C 55.308594 -47.40625 55.539062 -49.113281 55.539062 -50.878906 Z M 14.238281 -65.332031 L 14.238281 -8.84375 L 10.359375 -8.84375 L 10.359375 -12.722656 L 39.15625 -12.722656 C 40.570312 -12.722656 41.898438 -12.992188 43.136719 -13.535156 C 44.421875 -14.097656 45.558594 -14.871094 46.542969 -15.855469 C 47.527344 -16.839844 48.304688 -17.976562 48.863281 -19.261719 C 49.40625 -20.503906 49.675781 -21.847656 49.675781 -23.292969 C 49.675781 -24.597656 49.453125 -25.832031 49.003906 -27 C 48.542969 -28.191406 47.898438 -29.265625 47.066406 -30.21875 C 46.265625 -31.144531 45.332031 -31.878906 44.273438 -32.425781 C 43.261719 -32.949219 42.15625 -33.242188 40.957031 -33.3125 L 37.296875 -33.523438 L 37.296875 -40.605469 L 40.28125 -41.316406 C 41.125 -41.515625 41.890625 -41.894531 42.578125 -42.453125 C 43.40625 -43.121094 44.125 -43.933594 44.746094 -44.882812 C 45.402344 -45.894531 45.90625 -46.9375 46.253906 -48.011719 C 46.582031 -49.019531 46.746094 -49.976562 46.746094 -50.878906 C 46.746094 -52.367188 46.472656 -53.738281 45.929688 -54.996094 C 45.375 -56.28125 44.605469 -57.402344 43.625 -58.359375 C 42.621094 -59.335938 41.476562 -60.097656 40.183594 -60.648438 C 38.9375 -61.183594 37.601562 -61.449219 36.175781 -61.449219 L 10.359375 -61.449219 L 10.359375 -65.332031 Z M 6.476562 -69.210938 L 36.175781 -69.210938 C 38.660156 -69.210938 41.011719 -68.738281 43.234375 -67.789062 C 45.414062 -66.859375 47.347656 -65.566406 49.042969 -63.914062 C 50.753906 -62.246094 52.09375 -60.300781 53.050781 -58.082031 C 54.023438 -55.835938 54.507812 -53.4375 54.507812 -50.878906 C 54.507812 -49.15625 54.21875 -47.398438 53.636719 -45.613281 C 53.078125 -43.890625 52.28125 -42.238281 51.253906 -40.65625 C 50.191406 -39.015625 48.925781 -37.601562 47.460938 -36.417969 C 45.859375 -35.121094 44.0625 -34.238281 42.078125 -33.765625 L 41.179688 -37.542969 L 45.058594 -37.542969 L 45.058594 -37.1875 L 41.179688 -37.1875 L 41.402344 -41.0625 C 43.703125 -40.929688 45.847656 -40.347656 47.835938 -39.320312 C 49.773438 -38.320312 51.472656 -36.984375 52.925781 -35.3125 C 54.351562 -33.675781 55.457031 -31.832031 56.246094 -29.792969 C 57.042969 -27.726562 57.4375 -25.558594 57.4375 -23.292969 C 57.4375 -20.765625 56.953125 -18.386719 55.976562 -16.15625 C 55.023438 -13.972656 53.710938 -12.042969 52.03125 -10.367188 C 50.355469 -8.691406 48.425781 -7.375 46.246094 -6.421875 C 44.015625 -5.449219 41.652344 -4.960938 39.15625 -4.960938 L 6.476562 -4.960938 Z M 11.519531 -41.523438 L 36.277344 -41.523438 C 37.5625 -41.523438 38.757812 -41.761719 39.867188 -42.242188 C 41.015625 -42.734375 42.027344 -43.421875 42.90625 -44.300781 C 43.789062 -45.1875 44.480469 -46.195312 44.972656 -47.328125 C 45.449219 -48.417969 45.6875 -49.601562 45.6875 -50.878906 C 45.6875 -52.191406 45.441406 -53.40625 44.949219 -54.527344 C 44.4375 -55.699219 43.738281 -56.726562 42.855469 -57.609375 C 41.988281 -58.476562 40.980469 -59.148438 39.839844 -59.625 C 38.722656 -60.089844 37.527344 -60.3125 36.25 -60.289062 L 11.519531 -60.289062 L 11.519531 -64.167969 L 15.402344 -64.167969 L 15.402344 -37.640625 L 11.519531 -37.640625 Z M 7.640625 -33.761719 L 7.640625 -68.050781 L 36.105469 -68.050781 C 38.464844 -68.09375 40.707031 -67.671875 42.824219 -66.792969 C 44.914062 -65.921875 46.753906 -64.691406 48.34375 -63.097656 C 49.917969 -61.523438 51.15625 -59.703125 52.0625 -57.640625 C 52.984375 -55.527344 53.449219 -53.273438 53.449219 -50.878906 C 53.449219 -48.523438 52.996094 -46.304688 52.089844 -44.226562 C 51.203125 -42.195312 49.972656 -40.390625 48.394531 -38.8125 C 46.816406 -37.234375 45 -36 42.945312 -35.113281 C 40.855469 -34.210938 38.632812 -33.761719 36.277344 -33.761719 Z M 44.402344 -50.980469 C 44.402344 -48.726562 43.621094 -46.785156 42.058594 -45.160156 C 41.269531 -44.339844 40.378906 -43.71875 39.378906 -43.292969 C 38.378906 -42.867188 37.3125 -42.652344 36.175781 -42.652344 L 15.925781 -42.652344 L 15.925781 -59.257812 L 36.175781 -59.257812 C 38.460938 -59.257812 40.402344 -58.457031 42.003906 -56.859375 C 43.601562 -55.257812 44.402344 -53.300781 44.402344 -50.980469 Z M 36.640625 -50.980469 C 36.640625 -51.101562 36.628906 -51.191406 36.605469 -51.246094 C 36.59375 -51.28125 36.5625 -51.320312 36.515625 -51.371094 C 36.460938 -51.421875 36.417969 -51.457031 36.386719 -51.46875 C 36.34375 -51.488281 36.273438 -51.496094 36.175781 -51.496094 L 19.804688 -51.496094 L 19.804688 -55.378906 L 23.6875 -55.378906 L 23.6875 -46.535156 L 19.804688 -46.535156 L 19.804688 -50.414062 L 36.175781 -50.414062 C 36.253906 -50.414062 36.308594 -50.421875 36.335938 -50.433594 C 36.363281 -50.445312 36.40625 -50.480469 36.460938 -50.539062 C 36.582031 -50.664062 36.640625 -50.8125 36.640625 -50.980469 Z M 15.402344 -36.582031 L 15.402344 -10.003906 L 11.519531 -10.003906 L 11.519531 -13.886719 L 39.15625 -13.886719 C 40.488281 -13.886719 41.726562 -14.128906 42.875 -14.613281 C 44.054688 -15.113281 45.082031 -15.792969 45.957031 -16.65625 C 46.832031 -17.519531 47.523438 -18.535156 48.03125 -19.695312 C 48.523438 -20.816406 48.769531 -22.015625 48.769531 -23.292969 C 48.769531 -24.570312 48.523438 -25.769531 48.03125 -26.890625 C 47.523438 -28.050781 46.832031 -29.0625 45.957031 -29.925781 C 45.082031 -30.792969 44.054688 -31.472656 42.875 -31.96875 C 41.726562 -32.457031 40.488281 -32.699219 39.15625 -32.699219 L 11.519531 -32.699219 L 11.519531 -36.582031 Z M 7.640625 -40.460938 L 39.15625 -40.460938 C 41.535156 -40.460938 43.78125 -40.015625 45.898438 -39.121094 C 47.988281 -38.238281 49.824219 -37.015625 51.40625 -35.453125 C 52.992188 -33.890625 54.238281 -32.074219 55.144531 -30.003906 C 56.066406 -27.890625 56.53125 -25.652344 56.53125 -23.292969 C 56.53125 -20.933594 56.066406 -18.695312 55.144531 -16.582031 C 54.238281 -14.511719 52.992188 -12.695312 51.40625 -11.132812 C 49.824219 -9.570312 47.988281 -8.347656 45.898438 -7.464844 C 43.78125 -6.570312 41.535156 -6.125 39.15625 -6.125 L 7.640625 -6.125 Z M 47.585938 -23.292969 C 47.585938 -21.039062 46.804688 -19.097656 45.238281 -17.46875 C 44.453125 -16.652344 43.5625 -16.03125 42.5625 -15.605469 C 41.5625 -15.179688 40.496094 -14.964844 39.359375 -14.964844 L 15.925781 -14.964844 L 15.925781 -31.621094 L 39.359375 -31.621094 C 40.496094 -31.621094 41.5625 -31.40625 42.5625 -30.980469 C 43.5625 -30.554688 44.453125 -29.933594 45.238281 -29.117188 C 46.804688 -27.488281 47.585938 -25.546875 47.585938 -23.292969 Z M 39.824219 -23.292969 C 39.824219 -23.464844 39.765625 -23.609375 39.644531 -23.734375 C 39.589844 -23.792969 39.546875 -23.828125 39.519531 -23.839844 C 39.492188 -23.851562 39.4375 -23.859375 39.359375 -23.859375 L 19.804688 -23.859375 L 19.804688 -27.738281 L 23.6875 -27.738281 L 23.6875 -18.847656 L 19.804688 -18.847656 L 19.804688 -22.726562 L 39.359375 -22.726562 C 39.4375 -22.726562 39.492188 -22.734375 39.519531 -22.746094 C 39.546875 -22.757812 39.589844 -22.792969 39.644531 -22.851562 C 39.765625 -22.976562 39.824219 -23.121094 39.824219 -23.292969 Z M 39.824219 -23.292969 "/></g></g></g><g fill="#265f28" fill-opacity="1"><g transform="translate(70.830227, 92.21879)"><g><path d="M -1.355469 0 L -1.355469 -78.054688 L 15.652344 -78.054688 L 15.652344 3.882812 L -1.355469 3.882812 Z M 6.40625 0 L 2.527344 0 L 2.527344 -3.882812 L 11.773438 -3.882812 L 11.773438 0 L 7.890625 0 L 7.890625 -74.171875 L 11.773438 -74.171875 L 11.773438 -70.292969 L 2.527344 -70.292969 L 2.527344 -74.171875 L 6.40625 -74.171875 Z M 8.953125 0 L 8.953125 -78.054688 L 25.859375 -78.054688 L 25.859375 3.882812 L 8.953125 3.882812 Z M 16.714844 0 L 12.832031 0 L 12.832031 -3.882812 L 21.980469 -3.882812 L 21.980469 0 L 18.097656 0 L 18.097656 -74.171875 L 21.980469 -74.171875 L 21.980469 -70.292969 L 12.832031 -70.292969 L 12.832031 -74.171875 L 16.714844 -74.171875 Z M 16.714844 0 "/></g></g></g><g fill="#265f28" fill-opacity="1"><g transform="translate(97.452894, 92.21879)"><g><path d="M 39.109375 -78.964844 C 43.773438 -78.964844 48.210938 -78.257812 52.421875 -76.839844 C 56.609375 -75.433594 60.449219 -73.445312 63.9375 -70.882812 C 67.429688 -68.324219 70.453125 -65.289062 73.011719 -61.785156 C 75.574219 -58.277344 77.554688 -54.433594 78.964844 -50.246094 C 80.378906 -46.039062 81.085938 -41.621094 81.085938 -36.984375 C 81.085938 -32.382812 80.378906 -27.984375 78.960938 -23.792969 C 77.550781 -19.621094 75.566406 -15.796875 73 -12.324219 C 70.441406 -8.855469 67.421875 -5.84375 63.9375 -3.289062 C 60.449219 -0.726562 56.609375 1.257812 52.421875 2.667969 C 48.210938 4.082031 43.773438 4.789062 39.109375 4.789062 C 34.503906 4.789062 30.109375 4.082031 25.917969 2.667969 C 21.742188 1.257812 17.917969 -0.730469 14.445312 -3.292969 C 10.980469 -5.851562 7.972656 -8.859375 5.417969 -12.324219 C 2.851562 -15.796875 0.863281 -19.621094 -0.542969 -23.792969 C -1.960938 -27.984375 -2.667969 -32.382812 -2.667969 -36.984375 C -2.667969 -41.621094 -1.960938 -46.039062 -0.546875 -50.246094 C 0.863281 -54.433594 2.84375 -58.277344 5.40625 -61.785156 C 7.960938 -65.289062 10.976562 -68.320312 14.445312 -70.878906 C 17.917969 -73.441406 21.742188 -75.429688 25.917969 -76.839844 C 30.109375 -78.253906 34.503906 -78.964844 39.109375 -78.964844 Z M 39.109375 -71.203125 C 35.355469 -71.203125 31.785156 -70.628906 28.398438 -69.484375 C 24.992188 -68.335938 21.878906 -66.71875 19.054688 -64.632812 C 16.222656 -62.542969 13.761719 -60.070312 11.671875 -57.207031 C 9.585938 -54.347656 7.964844 -51.203125 6.8125 -47.773438 C 5.667969 -44.367188 5.09375 -40.773438 5.09375 -36.984375 C 5.09375 -33.234375 5.664062 -29.664062 6.808594 -26.277344 C 7.960938 -22.871094 9.578125 -19.757812 11.660156 -16.933594 C 13.753906 -14.097656 16.21875 -11.632812 19.054688 -9.539062 C 21.878906 -7.457031 24.992188 -5.839844 28.398438 -4.6875 C 31.785156 -3.542969 35.355469 -2.972656 39.109375 -2.972656 C 42.929688 -2.972656 46.542969 -3.542969 49.945312 -4.6875 C 53.371094 -5.839844 56.503906 -7.460938 59.347656 -9.546875 C 62.195312 -11.636719 64.664062 -14.097656 66.753906 -16.933594 C 68.839844 -19.757812 70.457031 -22.871094 71.609375 -26.277344 C 72.75 -29.664062 73.324219 -33.234375 73.324219 -36.984375 C 73.324219 -40.773438 72.75 -44.367188 71.605469 -47.773438 C 70.453125 -51.203125 68.832031 -54.347656 66.742188 -57.207031 C 64.65625 -60.066406 62.191406 -62.539062 59.347656 -64.628906 C 56.503906 -66.714844 53.371094 -68.332031 49.945312 -69.484375 C 46.542969 -70.628906 42.929688 -71.203125 39.109375 -71.203125 Z M 39.109375 -12.117188 C 42.625 -12.117188 45.894531 -12.753906 48.914062 -14.035156 C 51.953125 -15.320312 54.613281 -17.105469 56.902344 -19.394531 C 59.191406 -21.683594 60.980469 -24.332031 62.265625 -27.34375 C 63.542969 -30.328125 64.179688 -33.539062 64.179688 -36.984375 C 64.179688 -40.46875 63.539062 -43.722656 62.261719 -46.742188 C 60.976562 -49.777344 59.191406 -52.441406 56.902344 -54.730469 C 54.609375 -57.019531 51.941406 -58.816406 48.898438 -60.121094 C 45.882812 -61.410156 42.621094 -62.054688 39.109375 -62.054688 C 35.671875 -62.054688 32.472656 -61.414062 29.511719 -60.128906 C 26.515625 -58.828125 23.878906 -57.03125 21.597656 -54.738281 C 19.324219 -52.449219 17.542969 -49.78125 16.257812 -46.742188 C 14.980469 -43.722656 14.339844 -40.46875 14.339844 -36.984375 C 14.339844 -34.238281 14.753906 -31.625 15.582031 -29.144531 C 16.414062 -26.648438 17.585938 -24.367188 19.097656 -22.300781 C 20.617188 -20.226562 22.414062 -18.421875 24.488281 -16.890625 C 26.550781 -15.363281 28.820312 -14.1875 31.296875 -13.355469 C 33.761719 -12.53125 36.363281 -12.117188 39.109375 -12.117188 Z M 39.109375 -4.355469 C 35.519531 -4.355469 32.09375 -4.902344 28.828125 -5.996094 C 25.578125 -7.085938 22.59375 -8.636719 19.875 -10.648438 C 17.164062 -12.652344 14.820312 -15.007812 12.835938 -17.714844 C 10.84375 -20.433594 9.304688 -23.425781 8.21875 -26.6875 C 7.125 -29.96875 6.578125 -33.398438 6.578125 -36.984375 C 6.578125 -41.519531 7.421875 -45.777344 9.109375 -49.765625 C 10.785156 -53.730469 13.113281 -57.210938 16.09375 -60.210938 C 19.070312 -63.207031 22.511719 -65.550781 26.421875 -67.25 C 30.367188 -68.960938 34.59375 -69.816406 39.109375 -69.816406 C 43.679688 -69.816406 47.960938 -68.964844 51.953125 -67.257812 C 55.914062 -65.5625 59.394531 -63.214844 62.390625 -60.21875 C 65.390625 -57.21875 67.730469 -53.734375 69.410156 -49.765625 C 71.097656 -45.777344 71.941406 -41.519531 71.941406 -36.984375 C 71.941406 -32.480469 71.09375 -28.25 69.40625 -24.292969 C 67.726562 -20.367188 65.386719 -16.902344 62.390625 -13.902344 C 59.390625 -10.902344 55.90625 -8.5625 51.9375 -6.882812 C 47.953125 -5.199219 43.675781 -4.355469 39.109375 -4.355469 Z M 39.109375 -68.757812 C 43.507812 -68.757812 47.636719 -67.9375 51.488281 -66.300781 C 55.320312 -64.671875 58.691406 -62.402344 61.609375 -59.484375 C 64.523438 -56.570312 66.792969 -53.199219 68.421875 -49.367188 C 70.058594 -45.511719 70.878906 -41.386719 70.878906 -36.984375 C 70.878906 -32.644531 70.058594 -28.570312 68.414062 -24.761719 C 66.78125 -20.980469 64.507812 -17.652344 61.589844 -14.769531 C 58.679688 -11.898438 55.3125 -9.648438 51.488281 -8.023438 C 47.636719 -6.386719 43.507812 -5.566406 39.109375 -5.566406 C 34.769531 -5.566406 30.6875 -6.386719 26.863281 -8.03125 C 23.074219 -9.65625 19.738281 -11.910156 16.859375 -14.789062 C 13.984375 -17.664062 11.730469 -20.988281 10.105469 -24.761719 C 8.460938 -28.570312 7.640625 -32.644531 7.640625 -36.984375 C 7.640625 -41.386719 8.457031 -45.511719 10.09375 -49.367188 C 11.71875 -53.1875 13.96875 -56.554688 16.84375 -59.46875 C 19.722656 -62.386719 23.066406 -64.664062 26.863281 -66.296875 C 30.6875 -67.9375 34.769531 -68.757812 39.109375 -68.757812 Z M 39.109375 -60.996094 C 35.832031 -60.996094 32.773438 -60.382812 29.925781 -59.164062 C 27.058594 -57.929688 24.539062 -56.214844 22.367188 -54.015625 C 20.1875 -51.804688 18.476562 -49.246094 17.238281 -46.332031 C 16.015625 -43.445312 15.402344 -40.332031 15.402344 -36.984375 C 15.402344 -33.714844 16.011719 -30.664062 17.230469 -27.835938 C 18.464844 -24.972656 20.171875 -22.453125 22.347656 -20.277344 C 24.523438 -18.101562 27.050781 -16.398438 29.925781 -15.164062 C 32.773438 -13.941406 35.832031 -13.328125 39.109375 -13.328125 C 42.453125 -13.328125 45.570312 -13.941406 48.453125 -15.167969 C 51.367188 -16.40625 53.929688 -18.117188 56.136719 -20.296875 C 58.339844 -22.46875 60.054688 -24.980469 61.289062 -27.835938 C 62.507812 -30.664062 63.117188 -33.714844 63.117188 -36.984375 C 63.117188 -40.332031 62.503906 -43.445312 61.277344 -46.332031 C 60.042969 -49.238281 58.324219 -51.792969 56.121094 -53.996094 C 53.914062 -56.203125 51.359375 -57.921875 48.453125 -59.15625 C 45.570312 -60.382812 42.453125 -60.996094 39.109375 -60.996094 Z M 39.109375 -22.476562 C 41.210938 -22.476562 43.160156 -22.851562 44.949219 -23.609375 C 46.75 -24.371094 48.3125 -25.417969 49.636719 -26.757812 C 50.980469 -28.113281 52.035156 -29.671875 52.804688 -31.433594 C 53.546875 -33.148438 53.921875 -34.996094 53.921875 -36.984375 C 53.921875 -39.015625 53.546875 -40.90625 52.796875 -42.65625 C 52.027344 -44.449219 50.96875 -46.035156 49.625 -47.40625 C 48.304688 -48.753906 46.746094 -49.804688 44.949219 -50.5625 C 43.160156 -51.320312 41.210938 -51.699219 39.109375 -51.699219 C 37.121094 -51.699219 35.269531 -51.324219 33.558594 -50.582031 C 31.808594 -49.820312 30.257812 -48.757812 28.90625 -47.390625 C 27.550781 -46.023438 26.488281 -44.445312 25.722656 -42.65625 C 24.972656 -40.90625 24.597656 -39.015625 24.597656 -36.984375 C 24.597656 -34.996094 24.96875 -33.148438 25.714844 -31.433594 C 26.480469 -29.679688 27.539062 -28.125 28.890625 -26.769531 C 30.246094 -25.414062 31.800781 -24.355469 33.558594 -23.59375 C 35.269531 -22.847656 37.121094 -22.476562 39.109375 -22.476562 Z M 39.109375 -14.710938 C 36.042969 -14.710938 33.160156 -15.300781 30.460938 -16.476562 C 27.804688 -17.632812 25.453125 -19.234375 23.402344 -21.28125 C 21.355469 -23.328125 19.753906 -25.679688 18.597656 -28.339844 C 17.421875 -31.039062 16.835938 -33.921875 16.835938 -36.984375 C 16.835938 -40.078125 17.417969 -42.984375 18.589844 -45.714844 C 19.742188 -48.40625 21.34375 -50.785156 23.390625 -52.851562 C 25.441406 -54.925781 27.796875 -56.539062 30.460938 -57.699219 C 33.160156 -58.871094 36.042969 -59.460938 39.109375 -59.460938 C 42.257812 -59.460938 45.210938 -58.878906 47.96875 -57.714844 C 50.71875 -56.554688 53.121094 -54.925781 55.167969 -52.839844 C 57.191406 -50.773438 58.777344 -48.398438 59.929688 -45.714844 C 61.097656 -42.984375 61.683594 -40.078125 61.683594 -36.984375 C 61.683594 -33.921875 61.097656 -31.039062 59.921875 -28.339844 C 58.769531 -25.6875 57.179688 -23.339844 55.152344 -21.292969 C 53.109375 -19.230469 50.714844 -17.617188 47.96875 -16.457031 C 45.210938 -15.292969 42.257812 -14.710938 39.109375 -14.710938 Z M 39.109375 -14.710938 "/></g></g></g><g fill="#84bd86" fill-opacity="1"><g transform="translate(5.662787, 92.21879)"><g><path d="M 59.421875 -50.890625 C 59.421875 -48.765625 59.140625 -46.707031 58.578125 -44.71875 C 58.023438 -42.726562 57.242188 -40.859375 56.234375 -39.109375 C 58.160156 -37.054688 59.671875 -34.664062 60.765625 -31.9375 C 61.859375 -29.207031 62.40625 -26.328125 62.40625 -23.296875 C 62.40625 -20.097656 61.804688 -17.09375 60.609375 -14.28125 C 59.410156 -11.46875 57.757812 -8.988281 55.65625 -6.84375 C 53.550781 -4.707031 51.109375 -3.039062 48.328125 -1.84375 C 45.546875 -0.644531 42.554688 -0.046875 39.359375 -0.046875 L 1.5625 -0.046875 L 1.5625 -74.125 L 36.28125 -74.125 C 39.476562 -74.125 42.46875 -73.523438 45.25 -72.328125 C 48.03125 -71.140625 50.488281 -69.472656 52.625 -67.328125 C 54.757812 -65.191406 56.425781 -62.722656 57.625 -59.921875 C 58.820312 -57.128906 59.421875 -54.117188 59.421875 -50.890625 Z M 10.359375 -65.328125 L 10.359375 -8.84375 L 39.15625 -8.84375 C 41.113281 -8.84375 42.957031 -9.21875 44.6875 -9.96875 C 46.425781 -10.726562 47.957031 -11.773438 49.28125 -13.109375 C 50.613281 -14.441406 51.660156 -15.972656 52.421875 -17.703125 C 53.179688 -19.441406 53.5625 -21.304688 53.5625 -23.296875 C 53.5625 -25.078125 53.25 -26.773438 52.625 -28.390625 C 52 -30.015625 51.125 -31.472656 50 -32.765625 C 48.875 -34.066406 47.5625 -35.101562 46.0625 -35.875 C 44.5625 -36.644531 42.9375 -37.082031 41.1875 -37.1875 L 41.1875 -37.546875 C 42.59375 -37.878906 43.867188 -38.507812 45.015625 -39.4375 C 46.160156 -40.363281 47.15625 -41.472656 48 -42.765625 C 48.84375 -44.066406 49.488281 -45.414062 49.9375 -46.8125 C 50.394531 -48.207031 50.625 -49.566406 50.625 -50.890625 C 50.625 -52.910156 50.242188 -54.796875 49.484375 -56.546875 C 48.734375 -58.296875 47.679688 -59.828125 46.328125 -61.140625 C 44.984375 -62.453125 43.441406 -63.476562 41.703125 -64.21875 C 39.972656 -64.957031 38.128906 -65.328125 36.171875 -65.328125 Z M 11.515625 -37.640625 L 36.28125 -37.640625 C 38.101562 -37.640625 39.8125 -37.984375 41.40625 -38.671875 C 43.007812 -39.367188 44.425781 -40.332031 45.65625 -41.5625 C 46.882812 -42.789062 47.84375 -44.195312 48.53125 -45.78125 C 49.21875 -47.363281 49.5625 -49.066406 49.5625 -50.890625 C 49.5625 -52.734375 49.207031 -54.460938 48.5 -56.078125 C 47.800781 -57.703125 46.835938 -59.128906 45.609375 -60.359375 C 44.378906 -61.585938 42.953125 -62.535156 41.328125 -63.203125 C 39.710938 -63.878906 37.992188 -64.203125 36.171875 -64.171875 L 11.515625 -64.171875 Z M 40.53125 -50.984375 C 40.53125 -49.773438 40.109375 -48.726562 39.265625 -47.84375 C 38.421875 -46.96875 37.390625 -46.53125 36.171875 -46.53125 L 19.8125 -46.53125 L 19.8125 -55.375 L 36.171875 -55.375 C 37.390625 -55.375 38.421875 -54.953125 39.265625 -54.109375 C 40.109375 -53.273438 40.53125 -52.234375 40.53125 -50.984375 Z M 11.515625 -36.578125 L 11.515625 -10 L 39.15625 -10 C 41.007812 -10 42.753906 -10.34375 44.390625 -11.03125 C 46.023438 -11.726562 47.457031 -12.679688 48.6875 -13.890625 C 49.914062 -15.109375 50.882812 -16.523438 51.59375 -18.140625 C 52.300781 -19.753906 52.65625 -21.472656 52.65625 -23.296875 C 52.65625 -25.109375 52.300781 -26.820312 51.59375 -28.4375 C 50.882812 -30.0625 49.914062 -31.476562 48.6875 -32.6875 C 47.457031 -33.90625 46.023438 -34.859375 44.390625 -35.546875 C 42.753906 -36.234375 41.007812 -36.578125 39.15625 -36.578125 Z M 43.703125 -23.296875 C 43.703125 -22.078125 43.28125 -21.03125 42.4375 -20.15625 C 41.601562 -19.28125 40.578125 -18.84375 39.359375 -18.84375 L 19.8125 -18.84375 L 19.8125 -27.734375 L 39.359375 -27.734375 C 40.578125 -27.734375 41.601562 -27.296875 42.4375 -26.421875 C 43.28125 -25.546875 43.703125 -24.503906 43.703125 -23.296875 Z M 43.703125 -23.296875 "/></g></g></g><g fill="#84bd86" fill-opacity="1"><g transform="translate(70.830227, 92.21879)"><g><path d="M 2.53125 0 L 2.53125 -74.171875 L 11.765625 -74.171875 L 11.765625 0 Z M 12.828125 0 L 12.828125 -74.171875 L 21.984375 -74.171875 L 21.984375 0 Z M 12.828125 0 "/></g></g></g><g fill="#84bd86" fill-opacity="1"><g transform="translate(97.452894, 92.21879)"><g><path d="M 39.109375 -75.09375 C 43.347656 -75.09375 47.367188 -74.453125 51.171875 -73.171875 C 54.984375 -71.890625 58.472656 -70.085938 61.640625 -67.765625 C 64.804688 -65.441406 67.550781 -62.6875 69.875 -59.5 C 72.207031 -56.3125 74.007812 -52.8125 75.28125 -49 C 76.5625 -45.195312 77.203125 -41.191406 77.203125 -36.984375 C 77.203125 -32.804688 76.5625 -28.820312 75.28125 -25.03125 C 74.007812 -21.25 72.207031 -17.78125 69.875 -14.625 C 67.550781 -11.476562 64.804688 -8.742188 61.640625 -6.421875 C 58.472656 -4.097656 54.984375 -2.296875 51.171875 -1.015625 C 47.367188 0.265625 43.347656 0.90625 39.109375 0.90625 C 34.929688 0.90625 30.945312 0.265625 27.15625 -1.015625 C 23.363281 -2.296875 19.894531 -4.097656 16.75 -6.421875 C 13.601562 -8.742188 10.863281 -11.476562 8.53125 -14.625 C 6.207031 -17.78125 4.40625 -21.25 3.125 -25.03125 C 1.851562 -28.820312 1.21875 -32.804688 1.21875 -36.984375 C 1.21875 -41.191406 1.851562 -45.195312 3.125 -49 C 4.40625 -52.8125 6.207031 -56.3125 8.53125 -59.5 C 10.863281 -62.6875 13.601562 -65.441406 16.75 -67.765625 C 19.894531 -70.085938 23.363281 -71.890625 27.15625 -73.171875 C 30.945312 -74.453125 34.929688 -75.09375 39.109375 -75.09375 Z M 39.109375 -8.234375 C 43.148438 -8.234375 46.921875 -8.972656 50.421875 -10.453125 C 53.929688 -11.941406 57.003906 -14.003906 59.640625 -16.640625 C 62.285156 -19.285156 64.347656 -22.34375 65.828125 -25.8125 C 67.316406 -29.289062 68.0625 -33.015625 68.0625 -36.984375 C 68.0625 -40.992188 67.316406 -44.75 65.828125 -48.25 C 64.347656 -51.757812 62.285156 -54.832031 59.640625 -57.46875 C 57.003906 -60.113281 53.929688 -62.1875 50.421875 -63.6875 C 46.921875 -65.1875 43.148438 -65.9375 39.109375 -65.9375 C 35.128906 -65.9375 31.410156 -65.1875 27.953125 -63.6875 C 24.503906 -62.1875 21.46875 -60.113281 18.84375 -57.46875 C 16.21875 -54.832031 14.160156 -51.757812 12.671875 -48.25 C 11.191406 -44.75 10.453125 -40.992188 10.453125 -36.984375 C 10.453125 -33.816406 10.929688 -30.789062 11.890625 -27.90625 C 12.859375 -25.03125 14.21875 -22.394531 15.96875 -20 C 17.71875 -17.613281 19.785156 -15.535156 22.171875 -13.765625 C 24.566406 -11.992188 27.195312 -10.628906 30.0625 -9.671875 C 32.925781 -8.710938 35.941406 -8.234375 39.109375 -8.234375 Z M 39.109375 -64.875 C 42.984375 -64.875 46.601562 -64.15625 49.96875 -62.71875 C 53.34375 -61.289062 56.304688 -59.296875 58.859375 -56.734375 C 61.421875 -54.179688 63.414062 -51.21875 64.84375 -47.84375 C 66.28125 -44.476562 67 -40.859375 67 -36.984375 C 67 -33.179688 66.28125 -29.617188 64.84375 -26.296875 C 63.414062 -22.984375 61.421875 -20.0625 58.859375 -17.53125 C 56.304688 -15.007812 53.34375 -13.03125 49.96875 -11.59375 C 46.601562 -10.164062 42.984375 -9.453125 39.109375 -9.453125 C 35.304688 -9.453125 31.734375 -10.164062 28.390625 -11.59375 C 25.054688 -13.03125 22.125 -15.007812 19.59375 -17.53125 C 17.070312 -20.0625 15.09375 -22.984375 13.65625 -26.296875 C 12.226562 -29.617188 11.515625 -33.179688 11.515625 -36.984375 C 11.515625 -40.859375 12.226562 -44.476562 13.65625 -47.84375 C 15.09375 -51.21875 17.070312 -54.179688 19.59375 -56.734375 C 22.125 -59.296875 25.054688 -61.289062 28.390625 -62.71875 C 31.734375 -64.15625 35.304688 -64.875 39.109375 -64.875 Z M 39.109375 -18.59375 C 41.734375 -18.59375 44.179688 -19.070312 46.453125 -20.03125 C 48.734375 -20.988281 50.710938 -22.316406 52.390625 -24.015625 C 54.078125 -25.722656 55.398438 -27.679688 56.359375 -29.890625 C 57.328125 -32.097656 57.8125 -34.460938 57.8125 -36.984375 C 57.8125 -39.546875 57.328125 -41.945312 56.359375 -44.1875 C 55.398438 -46.425781 54.078125 -48.40625 52.390625 -50.125 C 50.710938 -51.84375 48.734375 -53.179688 46.453125 -54.140625 C 44.179688 -55.097656 41.734375 -55.578125 39.109375 -55.578125 C 36.578125 -55.578125 34.207031 -55.097656 32 -54.140625 C 29.800781 -53.179688 27.847656 -51.84375 26.140625 -50.125 C 24.441406 -48.40625 23.113281 -46.425781 22.15625 -44.1875 C 21.195312 -41.945312 20.71875 -39.546875 20.71875 -36.984375 C 20.71875 -34.460938 21.195312 -32.097656 22.15625 -29.890625 C 23.113281 -27.679688 24.441406 -25.722656 26.140625 -24.015625 C 27.847656 -22.316406 29.800781 -20.988281 32 -20.03125 C 34.207031 -19.070312 36.578125 -18.59375 39.109375 -18.59375 Z M 39.109375 -18.59375 "/></g></g></g></g></g></svg>